<svg xmlns="http://www.w3.org/2000/svg" enable-background="new 0 0 3000 3000" viewBox="0 0 3000 3000"><path fill="#d8c899" d="M733.94,1269.84h-14.44c0.66-4.2,1.05-8.46,1.05-12.8c0-30.32-15.03-56.89-37.53-71.72
				c-13.91-9.19-25.92-21.13-35.37-35.17c1.71-1.77,2.89-4.27,2.89-7.09c0-4-2.23-7.41-5.51-8.86l-2.3-38.32h-2.69l-2.36,38.32
				c-3.22,1.44-5.45,4.86-5.45,8.86c0,2.82,1.18,5.32,2.89,7.09c-9.45,14.11-21.39,25.92-35.37,35.17
				c-22.51,14.83-37.53,41.41-37.53,71.72c0,4.33,0.46,8.6,1.05,12.8h-13.91c-5.91,0-10.63,5.12-10.63,11.35v6.36
				c0,6.23,4.72,11.29,10.63,11.29h1.97v714.13h182.35l-2.23-714.13h2.49c5.84,0,10.56-5.05,10.56-11.29v-6.36
				C744.51,1274.95,739.78,1269.84,733.94,1269.84z"/><path fill="#8c705b" d="M733.94,1269.84h-14.44c0.66-4.2,1.05-8.46,1.05-12.8c0-30.32-15.03-56.89-37.53-71.72
				c-13.71-9.06-25.59-20.8-35.04-34.65c5.71,8.53,80.32,123.69-31.69,123.17v10.89h128.22v-3.54
				C744.51,1274.95,739.78,1269.84,733.94,1269.84z" opacity=".2"/><path fill="#8c705b" d="M645.49,1286.31c59.65,23.17,88.07,687.42-94.16,696.28v30.38h182.35l-2.23-714.13h2.49
				c5.84,0,10.56-5.05,10.56-11.29v-1.25C744.51,1286.31,661.06,1267.06,645.49,1286.31z" opacity=".2"/><path fill="#7f634f" d="M686.83,1757.58h-90.47v-102.76c0-24.98,20.25-45.23,45.24-45.23l0,0c24.98,0,45.24,20.25,45.24,45.23
					V1757.58z"/><rect width="127.08" height="11.69" x="578.06" y="1751.15" fill="#8c705b"/><rect width="152.83" height="11.69" x="565.18" y="1480.53" fill="#8c705b"/><path fill="#7f634f" d="M596.59 1400.65v79.87h-26.56v-79.87c0-20.36 5.61-37.43 13.31-42.68C590.98 1363.22 596.59 1380.3 596.59 1400.65zM674.97 1392.18v88.35h-67.16v-88.35c0-22.51 14.27-41.37 33.55-47.16C660.77 1350.81 674.97 1369.67 674.97 1392.18zM712.94 1400.65v79.87h-26.51v-79.87c0-20.36 5.61-37.43 13.25-42.68C707.27 1363.22 712.94 1380.3 712.94 1400.65z"/><path fill="#8c705b" d="M731.85,1302.07H551.75c-9.58,0-17.35-7.77-17.35-17.35l0,0c0-9.58,7.77-17.35,17.35-17.35h180.09
				c9.58,0,17.35,7.77,17.35,17.35l0,0C749.19,1294.3,741.43,1302.07,731.85,1302.07z"/><path fill="#d8c899" d="M2231.06,1281.19v6.36c0,6.23,4.72,11.29,10.57,11.29h2.49l-2.23,714.13h182.35v-714.13h1.97
				c5.91,0,10.63-5.05,10.63-11.29v-6.36c0-6.23-4.73-11.35-10.63-11.35h-13.91c0.59-4.2,1.05-8.46,1.05-12.8
				c0-30.32-15.03-56.89-37.53-71.72c-13.98-9.25-25.92-21.06-35.37-35.17c1.71-1.77,2.89-4.27,2.89-7.09c0-4-2.23-7.41-5.45-8.86
				l-2.36-38.32h-2.69l-2.3,38.32c-3.28,1.44-5.51,4.86-5.51,8.86c0,2.82,1.18,5.32,2.89,7.09c-9.45,14.04-21.46,25.99-35.37,35.17
				c-22.51,14.83-37.53,41.41-37.53,71.72c0,4.33,0.39,8.6,1.05,12.8h-14.44C2235.78,1269.84,2231.06,1274.95,2231.06,1281.19z"/><path fill="#8c705b" d="M2231.06,1281.19v3.54h128.22v-10.89c-112.01,0.53-37.4-114.64-31.69-123.17
				c-9.45,13.85-21.33,25.59-35.04,34.65c-22.51,14.83-37.53,41.41-37.53,71.72c0,4.33,0.39,8.6,1.05,12.8h-14.44
				C2235.78,1269.84,2231.06,1274.95,2231.06,1281.19z" opacity=".2"/><path fill="#8c705b" d="M2231.06,1286.31v1.25c0,6.23,4.72,11.29,10.57,11.29h2.49l-2.23,714.13h182.35v-30.38
				c-182.23-8.86-153.81-673.11-94.16-696.28C2314.51,1267.06,2231.06,1286.31,2231.06,1286.31z" opacity=".2"/><path fill="#7f634f" d="M2288.73,1757.58h90.47v-102.76c0-24.98-20.25-45.23-45.24-45.23l0,0c-24.98,0-45.24,20.25-45.24,45.23
					V1757.58z"/><rect width="127.08" height="11.69" x="2270.43" y="1751.15" fill="#8c705b" transform="rotate(-180 2333.97 1756.996)"/><rect width="152.83" height="11.69" x="2257.56" y="1480.53" fill="#8c705b" transform="rotate(-180 2333.97 1486.374)"/><path fill="#7f634f" d="M2378.97 1400.65v79.87h26.57v-79.87c0-20.36-5.61-37.43-13.31-42.68C2384.58 1363.22 2378.97 1380.3 2378.97 1400.65zM2300.59 1392.18v88.35h67.16v-88.35c0-22.51-14.27-41.37-33.55-47.16C2314.8 1350.81 2300.59 1369.67 2300.59 1392.18zM2262.62 1400.65v79.87h26.51v-79.87c0-20.36-5.61-37.43-13.25-42.68C2268.29 1363.22 2262.62 1380.3 2262.62 1400.65z"/><path fill="#8c705b" d="M2243.72,1302.07h180.09c9.58,0,17.35-7.77,17.35-17.35l0,0c0-9.58-7.77-17.35-17.35-17.35h-180.09
				c-9.58,0-17.35,7.77-17.35,17.35l0,0C2226.37,1294.3,2234.14,1302.07,2243.72,1302.07z"/><g><path fill="#f5efd2" d="M335.93,2202.99h2335.94c-137.02,177.37-608.01,308.11-1167.97,308.11
				C943.94,2511.1,472.95,2380.37,335.93,2202.99z"/><path fill="#a59063" d="M567.13 2300.47c0 0 12.66-17.21 0-37.58 0 0 16.41 6.74 14.87 18.79 0 0 8.7 11.68 11.26 0 2.56-11.68 4.06 14.41-13.06 18.79s-17.12 9.93-20.19 2.35c-3.07-7.57-2.17-17.17-5.18-21.71C551.82 2276.57 571.19 2282.97 567.13 2300.47zM1165.91 2384.6c0 0-16.61-22.58 0-49.29 0 0-21.52 8.83-19.51 24.65 0 0-11.41 15.32-14.76 0-3.36-15.32-5.32 18.91 17.14 24.65 22.46 5.74 22.46 13.02 26.49 3.09 4.03-9.94 2.84-22.52 6.79-28.48C1186 2353.25 1160.59 2361.65 1165.91 2384.6zM1406.35 2321.77c0 0 16.61-22.58 0-49.29 0 0 21.52 8.84 19.51 24.65 0 0 11.41 15.32 14.76 0 3.36-15.32 5.32 18.91-17.14 24.65-22.46 5.74-22.46 13.02-26.49 3.09-4.03-9.93-2.84-22.52-6.79-28.48C1386.27 2290.41 1411.67 2298.81 1406.35 2321.77zM1730.33 2293.13c0 0 16.61-22.58 0-49.29 0 0 21.52 8.83 19.51 24.65 0 0 11.41 15.32 14.76 0 3.36-15.32 5.32 18.91-17.14 24.65-22.46 5.74-22.46 13.02-26.48 3.09-4.03-9.94-2.84-22.52-6.79-28.48C1710.24 2261.77 1735.65 2270.17 1730.33 2293.13zM1596.48 2427.47c0 0 16.61-22.58 0-49.29 0 0 21.52 8.83 19.51 24.65 0 0 11.41 15.32 14.76 0 3.36-15.32 5.32 18.91-17.14 24.65-22.46 5.74-22.46 13.02-26.49 3.09-4.03-9.93-2.84-22.52-6.79-28.48C1576.4 2396.11 1601.8 2404.51 1596.48 2427.47zM959.91 2298.57c0 0 16.61-22.58 0-49.29 0 0 21.52 8.84 19.51 24.65 0 0 11.41 15.32 14.76 0 3.36-15.32 5.32 18.91-17.14 24.65-22.46 5.74-22.46 13.02-26.48 3.09-4.03-9.94-2.84-22.52-6.79-28.48C939.82 2267.21 965.23 2275.61 959.91 2298.57zM732.64 2349.05c0 0-16.61-22.58 0-49.29 0 0-21.52 8.84-19.51 24.65 0 0-11.41 15.32-14.76 0-3.36-15.32-5.32 18.91 17.14 24.65 22.46 5.74 22.46 13.02 26.49 3.09 4.03-9.94 2.84-22.52 6.79-28.48C752.72 2317.69 727.32 2326.09 732.64 2349.05zM2446.32 2284.25c0 0-16.61-22.58 0-49.29 0 0-21.52 8.84-19.51 24.65 0 0-11.41 15.32-14.76 0-3.36-15.32-5.32 18.91 17.14 24.65 22.46 5.74 22.46 13.02 26.49 3.09 4.03-9.93 2.84-22.52 6.79-28.48C2466.41 2252.89 2441 2261.29 2446.32 2284.25zM2262.69 2353.99c0 0-16.61-22.58 0-49.29 0 0-21.52 8.84-19.51 24.65 0 0-11.41 15.32-14.76 0-3.36-15.32-5.32 18.91 17.14 24.65 22.46 5.74 22.46 13.02 26.48 3.09 4.03-9.94 2.84-22.52 6.79-28.48C2282.77 2322.64 2257.37 2331.04 2262.69 2353.99zM1919.89 2398.82c0 0-16.61-22.58 0-49.29 0 0-21.52 8.84-19.51 24.65 0 0-11.41 15.32-14.76 0-3.36-15.32-5.32 18.91 17.14 24.65 22.46 5.74 22.46 13.02 26.48 3.09 4.03-9.94 2.84-22.52 6.79-28.48C1939.98 2367.47 1914.57 2375.87 1919.89 2398.82zM2069.8 2287.86c0 0-16.61-22.58 0-49.29 0 0-21.52 8.84-19.51 24.65 0 0-11.41 15.32-14.76 0-3.35-15.32-5.32 18.91 17.14 24.65 22.46 5.74 22.46 13.02 26.49 3.09 4.03-9.93 2.84-22.52 6.79-28.48C2089.89 2256.51 2064.48 2264.9 2069.8 2287.86z"/></g><rect width="1206.06" height="443.1" x="900.87" y="1690.07" fill="#a59063" transform="rotate(-180 1503.9 1911.624)"/><rect width="1969.51" height="381.98" x="519.15" y="1806.2" fill="#d8c899"/><g><path fill="#d8c899" d="M330.46,2206.51h2346.89v-31.71c0-2.74-2.22-4.96-4.96-4.96H335.41c-2.74,0-4.96,2.22-4.96,4.96V2206.51z"/><path fill="#b7a472" d="M457.65,2169.84h2092.5v-31.76c0-2.71-2.2-4.9-4.9-4.9H462.55c-2.71,0-4.9,2.2-4.9,4.9V2169.84z"/><path fill="#a59063" d="M1429.6 2078.13h148.59V2050c0-1.99-1.62-3.61-3.61-3.61h-141.37c-1.99 0-3.61 1.62-3.61 3.61V2078.13zM1330.48 2133.18h346.85v-28.13c0-1.99-1.62-3.61-3.61-3.61h-339.63c-1.99 0-3.61 1.62-3.61 3.61V2133.18z"/><path fill="#b7a472" d="M1402.1,2101.43h203.6v-28.12c0-1.99-1.62-3.61-3.61-3.61h-196.38c-1.99,0-3.61,1.62-3.61,3.61V2101.43z"/></g><g><path fill="#7f634f" d="M1461.51 1915.69c0 0-3.29-29.75 20.95-45.39 7.82-5.04 13.28-10.6 17.08-15.82 2.32-3.16 4.02-6.2 5.28-8.92.96 1.71 2.09 3.5 3.43 5.31 3.8 5.23 9.26 10.78 17.08 15.82 24.24 15.64 20.94 45.41 20.94 45.41 18.53 0 20.6 31.39 20.6 31.39v105.75h-67.33-58.62v-102.14C1440.93 1947.09 1442.99 1915.69 1461.51 1915.69zM1889.69 2016.02c0 0-2.89-26.1 18.38-39.82 6.87-4.42 11.64-9.3 14.99-13.88 2.03-2.78 3.52-5.44 4.62-7.82.84 1.49 1.83 3.06 3 4.66 3.34 4.58 8.13 9.46 14.99 13.88 21.26 13.73 18.37 39.83 18.37 39.83 16.26 0 18.06 27.53 18.06 27.53v92.77h-59.05-51.43v-89.6C1871.63 2043.57 1873.44 2016.02 1889.69 2016.02zM2124.99 2016.02c0 0-2.89-26.1 18.38-39.82 6.87-4.42 11.65-9.3 14.98-13.88 2.03-2.78 3.53-5.44 4.63-7.82.84 1.49 1.83 3.06 3.01 4.66 3.34 4.58 8.13 9.46 14.98 13.88 21.27 13.73 18.38 39.83 18.38 39.83 16.26 0 18.07 27.53 18.07 27.53v92.77h-59.06-51.42v-89.6C2106.93 2043.57 2108.74 2016.02 2124.99 2016.02zM808.45 2016.02c0 0-2.87-26.1 18.38-39.82 6.87-4.42 11.66-9.3 15-13.88 2.03-2.78 3.51-5.44 4.62-7.82.84 1.49 1.84 3.06 3.02 4.66 3.32 4.58 8.11 9.46 14.98 13.88 21.27 13.73 18.36 39.83 18.36 39.83 16.26 0 18.07 27.53 18.07 27.53v92.77h-59.05-51.43v-89.6C790.39 2043.57 792.21 2016.02 808.45 2016.02zM1043.76 2016.02c0 0-2.9-26.1 18.37-39.82 6.87-4.42 11.66-9.3 14.99-13.88 2.03-2.78 3.54-5.44 4.63-7.82.83 1.49 1.83 3.06 3.01 4.66 3.33 4.58 8.12 9.46 14.99 13.88 21.26 13.73 18.37 39.83 18.37 39.83 16.25 0 18.06 27.53 18.06 27.53v92.77h-59.05-51.43v-89.6C1025.69 2043.57 1027.5 2016.02 1043.76 2016.02z"/></g><g><path fill="#7f634f" d="M1921.49 1746.83v14.66c0 5.78 5.73 10.52 13.05 10.95 7.3-.43 13.05-5.16 13.05-10.95v-14.66c0-5.75-5.75-10.51-13.05-10.92-3.48.19-6.58 1.36-8.9 3.17C1923.07 1741.07 1921.49 1743.79 1921.49 1746.83zM1879.62 1746.83v14.66c0 5.78 5.72 10.52 13.04 10.95 7.29-.43 13.04-5.16 13.04-10.95v-14.66c0-5.75-5.75-10.51-13.04-10.92-3.49.19-6.59 1.36-8.91 3.17C1881.19 1741.07 1879.62 1743.79 1879.62 1746.83zM1837.73 1746.83v14.66c0 5.78 5.71 10.52 13.04 10.95 7.3-.43 13.04-5.16 13.04-10.95v-14.66c0-5.75-5.74-10.51-13.04-10.92-3.49.19-6.59 1.36-8.9 3.17C1839.3 1741.07 1837.73 1743.79 1837.73 1746.83zM1771.08 1746.83v14.66c0 5.78 5.73 10.52 13.04 10.95 7.31-.43 13.05-5.16 13.05-10.95v-14.66c0-5.75-5.74-10.51-13.05-10.92-3.48.19-6.59 1.36-8.9 3.17C1772.66 1741.07 1771.08 1743.79 1771.08 1746.83zM1729.19 1746.83v14.66c0 5.78 5.73 10.52 13.04 10.95 7.31-.43 13.06-5.16 13.06-10.95v-14.66c0-5.75-5.75-10.51-13.06-10.92-3.48.19-6.59 1.36-8.89 3.17C1730.77 1741.07 1729.19 1743.79 1729.19 1746.83zM1687.31 1746.83v14.66c0 5.78 5.72 10.52 13.04 10.95 7.3-.43 13.05-5.16 13.05-10.95v-14.66c0-5.75-5.75-10.51-13.05-10.92-3.48.19-6.59 1.36-8.9 3.17C1688.88 1741.07 1687.31 1743.79 1687.31 1746.83zM1620.68 1746.83v14.66c0 5.78 5.71 10.52 13.04 10.95 7.29-.43 13.04-5.16 13.04-10.95v-14.66c0-5.75-5.75-10.51-13.04-10.92-3.49.19-6.59 1.36-8.9 3.17C1622.24 1741.07 1620.68 1743.79 1620.68 1746.83zM1578.79 1746.83v14.66c0 5.78 5.71 10.52 13.04 10.95 7.3-.43 13.04-5.16 13.04-10.95v-14.66c0-5.75-5.74-10.51-13.04-10.92-3.49.19-6.59 1.36-8.9 3.17C1580.36 1741.07 1578.79 1743.79 1578.79 1746.83zM1536.89 1746.83v14.66c0 5.78 5.72 10.52 13.05 10.95 7.29-.43 13.04-5.16 13.04-10.95v-14.66c0-5.75-5.75-10.51-13.04-10.92-3.5.19-6.6 1.36-8.91 3.17C1538.47 1741.07 1536.89 1743.79 1536.89 1746.83zM1470.25 1746.83v14.66c0 5.78 5.73 10.52 13.06 10.95 7.29-.43 13.04-5.16 13.04-10.95v-14.66c0-5.75-5.75-10.51-13.04-10.92-3.49.19-6.6 1.36-8.9 3.17C1471.84 1741.07 1470.25 1743.79 1470.25 1746.83zM1428.37 1746.83v14.66c0 5.78 5.72 10.52 13.05 10.95 7.29-.43 13.04-5.16 13.04-10.95v-14.66c0-5.75-5.75-10.51-13.04-10.92-3.49.19-6.6 1.36-8.9 3.17C1429.95 1741.07 1428.37 1743.79 1428.37 1746.83zM1386.48 1746.83v14.66c0 5.78 5.72 10.52 13.05 10.95 7.3-.43 13.05-5.16 13.05-10.95v-14.66c0-5.75-5.75-10.51-13.05-10.92-3.49.19-6.59 1.36-8.9 3.17C1388.06 1741.07 1386.48 1743.79 1386.48 1746.83zM1319.84 1746.83v14.66c0 5.78 5.72 10.52 13.04 10.95 7.31-.43 13.06-5.16 13.06-10.95v-14.66c0-5.75-5.75-10.51-13.06-10.92-3.47.19-6.59 1.36-8.9 3.17C1321.42 1741.07 1319.84 1743.79 1319.84 1746.83zM1277.95 1746.83v14.66c0 5.78 5.72 10.52 13.05 10.95 7.3-.43 13.05-5.16 13.05-10.95v-14.66c0-5.75-5.75-10.51-13.05-10.92-3.48.19-6.6 1.36-8.91 3.17C1279.53 1741.07 1277.95 1743.79 1277.95 1746.83zM1236.06 1746.83v14.66c0 5.78 5.73 10.52 13.05 10.95 7.3-.43 13.05-5.16 13.05-10.95v-14.66c0-5.75-5.75-10.51-13.05-10.92-3.48.19-6.6 1.36-8.89 3.17C1237.64 1741.07 1236.06 1743.79 1236.06 1746.83zM1143.98 1746.83v14.66c0 5.78 5.73 10.52 13.06 10.95 7.29-.43 13.04-5.16 13.04-10.95v-14.66c0-5.75-5.75-10.51-13.04-10.92-3.49.19-6.6 1.36-8.9 3.17C1145.57 1741.07 1143.98 1743.79 1143.98 1746.83zM1102.1 1746.83v14.66c0 5.78 5.72 10.52 13.05 10.95 7.29-.43 13.04-5.16 13.04-10.95v-14.66c0-5.75-5.75-10.51-13.04-10.92-3.49.19-6.6 1.36-8.9 3.17C1103.69 1741.07 1102.1 1743.79 1102.1 1746.83zM1060.21 1746.83v14.66c0 5.78 5.72 10.52 13.05 10.95 7.3-.43 13.05-5.16 13.05-10.95v-14.66c0-5.75-5.75-10.51-13.05-10.92-3.49.19-6.59 1.36-8.91 3.17C1061.79 1741.07 1060.21 1743.79 1060.21 1746.83z"/></g><g><path fill="#d8c899" fill-rule="evenodd" d="M1900.24,1630.82h18.05v59.25h-828.77v-59.25h18.05c-300.6-309.92,174.74-501.59,347.98-701.33
				c-1.64-23.23,0.39-50.99,24.34-62.6c-18.5-10.63-15.09-31.63,4.66-39.63c0.72-9.84,3.61-49.28,4.33-58.27
				c-13.39-6.36-12.21-21.59,1.64-26.97c4.4-55.45,9.38-128.22,13.39-187.6c4,59.39,8.99,132.16,13.39,187.6
				c13.85,5.38,15.03,20.6,1.64,26.97c0.72,8.99,3.61,48.43,4.33,58.27c19.75,8.01,23.16,29,4.66,39.63
				c23.95,11.61,25.98,39.37,24.34,62.6C1725.5,1129.23,2200.84,1320.9,1900.24,1630.82z" clip-rule="evenodd"/><path fill="#f5efd2" fill-rule="evenodd" d="M1900.22,1630.8h18.05v59.25h-587.81v-59.45l-151.57-6.94c-127.23-313.59,261.15-596.75,384.65-681.66
				C1745.03,1137.29,2194.52,1327.38,1900.22,1630.8z" clip-rule="evenodd" opacity=".35"/><path fill="#b7a472" d="M1535.73,548.52c-42.05,0-76.13-34.07-76.13-76.13c0-30.21,17.64-56.22,43.14-68.53
					c-44.45,5.79-78.79,43.7-78.79,89.73c0,50.02,40.55,90.58,90.58,90.58c46.02,0,83.93-34.35,89.71-78.78
					C1591.95,530.89,1565.93,548.52,1535.73,548.52z"/><polygon fill="#b7a472" points="1502.61 490.65 1498.04 517.27 1521.95 504.71 1545.85 517.27 1541.28 490.65 1560.62 471.8 1533.89 467.92 1521.95 443.7 1509.99 467.92 1483.26 471.8"/></g><path fill="#f5efd2" d="M1566.79,1036.25c0,0,239.48,153.4,249.14,237.18c16.87,146.28-270.83,340.33-463.59,321.05
			C1159.58,1575.2,1267.02,1153.55,1566.79,1036.25z" opacity=".5"/><path fill="#f5efd2" d="M1560.43,1108.84c0,0,123.78,77.63,130.93,139.65c12.49,108.29-146.99,287.86-289.68,273.59
			S1338.52,1195.68,1560.43,1108.84z" opacity=".5"/></svg>