<svg id="svg" version="1.1" xmlns="http://www.w3.org/2000/svg" xmlns:xlink="http://www.w3.org/1999/xlink" width="400" height="399.7335109926716" viewBox="0, 0, 400,399.7335109926716"><g id="svgg"><path id="path0" d="M119.524 90.130 C 119.232 90.299,118.872 90.545,118.724 90.677 C 118.336 91.023,115.982 92.358,114.657 92.984 C 114.034 93.278,113.524 93.630,113.524 93.766 C 113.524 93.902,113.220 94.089,112.847 94.183 C 112.475 94.276,112.229 94.447,112.300 94.563 C 112.372 94.679,112.017 94.923,111.511 95.105 C 111.006 95.288,110.593 95.535,110.593 95.654 C 110.593 95.774,110.233 96.020,109.793 96.203 C 109.354 96.385,108.994 96.631,108.994 96.750 C 108.994 96.869,108.776 97.035,108.509 97.120 C 108.242 97.205,107.672 97.616,107.243 98.034 C 106.814 98.451,106.191 98.879,105.859 98.983 C 105.527 99.087,105.324 99.284,105.408 99.420 C 105.492 99.556,105.373 99.667,105.143 99.667 C 104.913 99.667,104.520 99.907,104.269 100.200 C 104.018 100.493,103.723 100.733,103.614 100.733 C 103.505 100.733,103.070 101.063,102.647 101.466 C 102.223 101.869,101.607 102.378,101.277 102.598 C 100.947 102.818,100.193 103.418,99.601 103.931 C 98.506 104.880,97.617 105.623,97.133 105.991 C 95.991 106.860,94.936 107.905,95.067 108.036 C 95.154 108.123,95.074 108.195,94.888 108.195 C 94.703 108.195,93.983 108.764,93.290 109.460 C 92.597 110.157,91.380 111.347,90.585 112.105 C 89.791 112.863,88.388 114.302,87.469 115.303 C 86.550 116.303,85.288 117.675,84.665 118.350 C 84.041 119.026,83.217 119.985,82.832 120.482 C 82.448 120.979,81.907 121.626,81.631 121.919 C 81.355 122.212,80.775 122.931,80.341 123.518 C 79.908 124.104,79.342 124.778,79.084 125.015 C 78.825 125.252,78.614 125.530,78.614 125.633 C 78.614 125.736,78.464 125.979,78.281 126.172 C 78.098 126.365,77.708 126.856,77.415 127.263 C 77.122 127.670,76.732 128.154,76.549 128.339 C 76.366 128.525,76.216 128.805,76.216 128.962 C 76.216 129.119,76.089 129.247,75.934 129.247 C 75.778 129.247,75.726 129.367,75.816 129.514 C 75.907 129.660,75.882 129.780,75.762 129.780 C 75.641 129.780,75.246 130.260,74.883 130.846 C 74.521 131.432,74.133 131.912,74.021 131.912 C 73.909 131.912,73.817 132.073,73.817 132.270 C 73.817 132.467,73.547 132.944,73.216 133.329 C 72.885 133.714,72.377 134.482,72.086 135.036 C 71.795 135.589,71.487 136.103,71.402 136.176 C 71.316 136.249,71.015 136.727,70.733 137.237 C 70.451 137.747,70.056 138.340,69.855 138.553 C 69.655 138.767,69.373 139.279,69.230 139.691 C 69.086 140.103,68.860 140.440,68.728 140.440 C 68.596 140.440,68.488 140.603,68.488 140.804 C 68.488 141.004,68.239 141.483,67.935 141.869 C 67.632 142.256,67.451 142.572,67.533 142.572 C 67.616 142.572,67.503 142.781,67.284 143.038 C 67.064 143.294,66.868 143.624,66.848 143.771 C 66.828 143.917,66.529 144.485,66.184 145.031 C 65.839 145.578,65.556 146.159,65.556 146.323 C 65.556 146.486,65.335 146.938,65.065 147.327 C 64.299 148.432,63.685 149.808,63.844 150.066 C 63.924 150.194,63.862 150.300,63.707 150.300 C 63.551 150.300,63.424 150.480,63.424 150.700 C 63.424 150.919,63.304 151.099,63.158 151.099 C 63.011 151.099,62.889 151.249,62.886 151.432 C 62.882 151.616,62.623 152.305,62.309 152.965 C 61.667 154.312,61.721 154.176,61.442 155.163 C 61.328 155.566,61.147 155.896,61.039 155.896 C 60.932 155.896,60.699 156.406,60.523 157.029 C 60.185 158.220,60.082 158.484,59.185 160.444 C 58.878 161.113,58.628 161.856,58.628 162.094 C 58.628 162.332,58.508 162.601,58.361 162.692 C 58.215 162.782,58.095 163.021,58.095 163.223 C 58.095 163.425,57.989 163.867,57.860 164.207 C 57.731 164.546,57.599 164.943,57.567 165.090 C 57.535 165.237,57.407 165.548,57.282 165.782 C 57.064 166.188,56.986 166.475,56.596 168.288 C 56.501 168.728,56.326 169.213,56.205 169.367 C 56.085 169.521,55.906 170.150,55.807 170.766 C 55.709 171.382,55.513 171.885,55.373 171.885 C 55.233 171.885,55.169 172.035,55.231 172.219 C 55.293 172.402,55.182 172.941,54.983 173.418 C 54.785 173.894,54.682 174.284,54.753 174.284 C 54.825 174.284,54.763 174.600,54.616 174.986 C 54.470 175.373,54.282 176.112,54.200 176.630 C 54.118 177.147,53.955 177.820,53.839 178.126 C 53.723 178.431,53.614 178.771,53.596 178.881 C 53.579 178.991,53.555 179.111,53.544 179.147 C 53.261 180.071,51.157 192.190,51.195 192.672 C 51.213 192.891,51.198 193.161,51.163 193.271 C 51.128 193.381,51.069 193.831,51.033 194.270 C 50.996 194.710,50.945 195.100,50.920 195.137 C 50.873 195.205,50.801 196.122,50.476 200.799 C 50.250 204.049,50.243 213.850,50.464 217.855 C 50.628 220.817,50.752 222.285,51.048 224.758 C 51.137 225.505,51.261 226.596,51.323 227.182 C 51.384 227.768,51.481 228.548,51.537 228.914 C 51.752 230.318,52.235 233.073,52.378 233.711 C 52.460 234.077,52.563 234.617,52.608 234.910 C 52.678 235.380,53.008 236.996,53.449 239.041 C 53.528 239.407,53.637 239.947,53.691 240.240 C 53.888 241.313,54.071 241.981,54.247 242.265 C 54.346 242.425,54.452 242.935,54.483 243.397 C 54.514 243.859,54.668 244.477,54.825 244.770 C 54.982 245.063,55.128 245.423,55.149 245.570 C 55.238 246.194,55.514 247.248,55.884 248.368 C 56.102 249.027,56.309 249.808,56.344 250.102 C 56.379 250.397,56.552 250.907,56.728 251.235 C 56.904 251.563,56.981 251.832,56.899 251.832 C 56.818 251.832,57.002 252.323,57.308 252.924 C 57.615 253.524,57.802 254.079,57.724 254.157 C 57.646 254.235,57.756 254.633,57.968 255.042 C 58.179 255.451,58.644 256.679,59.000 257.770 C 59.356 258.861,59.958 260.366,60.337 261.114 C 60.716 261.862,61.026 262.644,61.026 262.852 C 61.026 263.300,66.470 274.747,66.797 274.985 C 66.921 275.076,67.435 276.019,67.940 277.082 C 68.444 278.145,68.939 279.014,69.040 279.014 C 69.140 279.014,69.371 279.374,69.554 279.813 C 69.736 280.253,69.982 280.613,70.101 280.613 C 70.220 280.613,70.385 280.826,70.468 281.087 C 70.617 281.558,72.234 284.210,72.712 284.769 C 72.849 284.929,73.147 285.409,73.374 285.834 C 73.601 286.260,74.093 286.957,74.468 287.383 C 74.843 287.809,75.150 288.250,75.150 288.364 C 75.150 288.477,75.300 288.728,75.483 288.922 C 75.666 289.115,76.176 289.813,76.616 290.473 C 77.055 291.133,77.685 291.971,78.015 292.336 C 78.344 292.701,78.614 293.072,78.614 293.161 C 78.614 293.250,78.824 293.570,79.081 293.872 C 79.337 294.174,79.727 294.685,79.947 295.008 C 80.167 295.331,80.653 295.930,81.028 296.339 C 81.403 296.748,82.003 297.460,82.361 297.923 C 82.718 298.385,83.221 299.015,83.478 299.323 C 83.734 299.630,83.944 300.003,83.944 300.152 C 83.944 300.300,84.022 300.344,84.117 300.249 C 84.212 300.154,84.516 300.344,84.793 300.671 C 87.818 304.244,94.411 310.822,97.674 313.524 C 98.383 314.111,99.090 314.713,99.248 314.863 C 99.405 315.014,100.283 315.721,101.199 316.435 C 102.115 317.149,102.865 317.828,102.865 317.943 C 102.865 318.058,103.135 318.237,103.464 318.341 C 103.794 318.445,104.244 318.734,104.464 318.984 C 104.684 319.233,105.343 319.742,105.929 320.116 C 106.516 320.490,107.260 321.048,107.584 321.357 C 107.907 321.666,108.297 321.919,108.450 321.919 C 108.603 321.919,108.728 322.046,108.728 322.201 C 108.728 322.356,108.847 322.409,108.994 322.318 C 109.141 322.228,109.260 322.252,109.260 322.373 C 109.260 322.494,109.740 322.889,110.326 323.251 C 110.913 323.614,111.392 323.989,111.392 324.085 C 111.392 324.181,111.692 324.335,112.059 324.427 C 112.425 324.519,112.725 324.711,112.725 324.855 C 112.725 324.999,112.905 325.117,113.125 325.117 C 113.344 325.117,113.524 325.224,113.524 325.354 C 113.524 325.485,113.797 325.660,114.129 325.744 C 114.462 325.827,114.981 326.125,115.282 326.406 C 115.584 326.687,116.070 326.993,116.363 327.086 C 116.655 327.179,117.133 327.463,117.424 327.718 C 117.931 328.162,119.113 328.869,120.384 329.489 C 120.713 329.649,120.983 329.877,120.984 329.996 C 120.985 330.114,121.092 330.146,121.221 330.066 C 121.351 329.986,121.769 330.167,122.151 330.467 C 122.534 330.768,122.967 330.939,123.115 330.848 C 123.263 330.756,123.384 330.808,123.384 330.964 C 123.384 331.119,123.554 331.246,123.762 331.246 C 123.970 331.246,124.179 331.336,124.228 331.446 C 124.368 331.761,125.953 332.578,126.424 332.578 C 126.657 332.578,126.850 332.668,126.851 332.778 C 126.853 332.888,127.392 333.215,128.050 333.504 C 128.709 333.793,129.247 334.119,129.247 334.229 C 129.247 334.338,129.427 334.358,129.647 334.274 C 129.867 334.189,130.047 334.253,130.047 334.415 C 130.047 334.577,130.218 334.710,130.428 334.710 C 130.638 334.710,131.384 335.001,132.085 335.356 C 132.786 335.712,133.454 335.945,133.569 335.874 C 133.684 335.803,133.777 335.842,133.777 335.962 C 133.777 336.208,134.885 336.726,135.976 336.989 C 136.379 337.087,136.709 337.262,136.709 337.379 C 136.709 337.496,136.949 337.529,137.242 337.452 C 137.535 337.376,137.775 337.433,137.775 337.579 C 137.775 337.801,138.142 337.993,139.107 338.275 C 139.308 338.334,143.445 339.800,143.904 339.975 C 144.124 340.059,144.364 340.142,144.437 340.160 C 145.046 340.311,147.970 341.237,148.773 341.534 C 149.325 341.738,150.015 341.905,150.305 341.905 C 150.595 341.905,150.833 342.022,150.833 342.164 C 150.833 342.305,151.014 342.352,151.236 342.267 C 151.458 342.182,151.816 342.259,152.032 342.438 C 152.248 342.618,152.602 342.696,152.820 342.613 C 153.037 342.530,153.277 342.563,153.353 342.686 C 153.429 342.810,153.943 343.005,154.494 343.120 C 155.045 343.236,155.556 343.344,155.630 343.362 C 157.341 343.778,158.561 344.053,159.094 344.144 C 159.460 344.207,160.338 344.390,161.043 344.552 C 161.749 344.714,162.430 344.783,162.557 344.704 C 162.684 344.626,162.855 344.670,162.936 344.802 C 163.085 345.043,164.820 345.389,166.556 345.524 C 167.069 345.563,167.488 345.614,167.488 345.636 C 167.488 345.730,168.638 345.932,169.753 346.034 C 171.067 346.154,172.121 346.274,174.151 346.535 C 176.144 346.791,179.257 346.977,184.011 347.124 C 186.356 347.197,188.394 347.262,188.541 347.270 C 189.122 347.300,195.677 346.982,197.384 346.841 C 198.383 346.759,199.860 346.640,200.666 346.576 C 202.190 346.455,205.353 346.055,207.195 345.751 C 207.781 345.654,208.621 345.538,209.061 345.494 C 209.500 345.450,210.160 345.336,210.526 345.242 C 210.893 345.148,211.552 345.026,211.992 344.970 C 213.359 344.799,214.528 344.555,218.521 343.608 C 220.646 343.105,222.636 342.654,222.944 342.607 C 223.251 342.559,223.640 342.435,223.809 342.331 C 224.123 342.137,224.903 341.935,225.852 341.801 C 226.146 341.760,226.626 341.599,226.918 341.442 C 227.210 341.286,227.543 341.159,227.660 341.160 C 227.776 341.161,228.196 341.047,228.592 340.907 C 230.480 340.242,231.215 340.001,231.628 339.910 C 231.875 339.855,232.320 339.681,232.617 339.522 C 232.914 339.363,233.257 339.265,233.381 339.304 C 233.504 339.342,234.199 339.116,234.924 338.802 C 238.047 337.448,240.191 336.576,240.398 336.576 C 240.736 336.576,252.479 330.956,252.632 330.721 C 252.705 330.608,253.544 330.124,254.497 329.647 C 255.450 329.169,256.292 328.681,256.368 328.562 C 256.445 328.443,257.132 328.057,257.895 327.703 C 258.659 327.350,259.222 326.999,259.147 326.924 C 259.072 326.849,259.374 326.637,259.818 326.453 C 260.263 326.268,260.626 326.022,260.626 325.904 C 260.626 325.787,261.046 325.552,261.559 325.383 C 262.072 325.214,262.492 324.966,262.492 324.833 C 262.492 324.700,262.911 324.415,263.424 324.201 C 263.937 323.987,264.357 323.698,264.357 323.560 C 264.357 323.422,264.633 323.240,264.971 323.155 C 265.308 323.070,265.938 322.641,266.370 322.201 C 266.802 321.761,267.309 321.397,267.497 321.393 C 267.685 321.389,267.907 321.206,267.992 320.986 C 268.076 320.766,268.313 320.586,268.519 320.586 C 268.724 320.586,269.098 320.346,269.349 320.053 C 269.600 319.760,269.894 319.520,270.003 319.520 C 270.112 319.520,270.559 319.191,270.996 318.787 C 271.432 318.384,271.946 317.934,272.137 317.786 C 274.956 315.607,275.539 315.134,276.895 313.924 C 277.306 313.558,278.033 312.958,278.511 312.592 C 278.988 312.225,279.507 311.769,279.663 311.578 C 279.819 311.387,280.221 310.968,280.557 310.645 C 283.585 307.739,288.075 303.152,288.075 302.965 C 288.075 302.837,288.262 302.732,288.490 302.732 C 288.719 302.732,288.842 302.628,288.763 302.502 C 288.685 302.375,289.008 301.911,289.481 301.470 C 290.377 300.633,291.337 299.534,291.171 299.534 C 291.118 299.534,291.717 298.844,292.504 298.001 C 293.290 297.159,293.934 296.346,293.935 296.195 C 293.937 296.044,294.177 295.748,294.470 295.536 C 294.763 295.325,295.003 295.053,295.003 294.932 C 295.003 294.812,295.303 294.413,295.670 294.046 C 296.036 293.680,296.336 293.283,296.336 293.165 C 296.336 293.047,296.696 292.574,297.135 292.114 C 297.575 291.654,297.935 291.156,297.935 291.008 C 297.935 290.861,298.062 290.740,298.217 290.740 C 298.372 290.740,298.425 290.620,298.334 290.473 C 298.244 290.326,298.268 290.207,298.389 290.207 C 298.510 290.207,298.905 289.727,299.267 289.141 C 299.629 288.554,300.018 288.075,300.130 288.075 C 300.242 288.075,300.333 287.923,300.333 287.739 C 300.333 287.554,300.633 287.080,300.999 286.684 C 301.366 286.289,301.666 285.833,301.666 285.670 C 301.666 285.396,302.908 283.580,303.302 283.278 C 303.398 283.205,303.697 282.635,303.966 282.012 C 304.236 281.389,304.548 280.879,304.660 280.879 C 304.772 280.879,304.863 280.762,304.863 280.618 C 304.863 280.474,305.343 279.572,305.929 278.614 C 306.516 277.656,306.995 276.755,306.995 276.611 C 306.995 276.467,307.115 276.349,307.262 276.349 C 307.408 276.349,307.506 276.259,307.479 276.149 C 307.426 275.937,308.492 273.749,309.882 271.213 C 310.347 270.367,310.726 269.498,310.726 269.281 C 310.726 269.065,310.846 268.887,310.993 268.887 C 311.139 268.887,311.259 268.725,311.259 268.527 C 311.259 268.329,311.556 267.610,311.918 266.928 C 312.280 266.247,312.517 265.690,312.445 265.690 C 312.372 265.690,312.496 265.410,312.720 265.069 C 312.943 264.727,313.046 264.367,312.948 264.269 C 312.850 264.171,312.894 264.091,313.046 264.091 C 313.197 264.091,313.473 263.551,313.658 262.891 C 313.842 262.232,314.118 261.692,314.270 261.692 C 314.422 261.692,314.469 261.615,314.375 261.522 C 314.281 261.428,314.370 261.038,314.573 260.655 C 314.776 260.273,315.262 259.001,315.655 257.828 C 316.047 256.656,316.468 255.456,316.591 255.163 C 317.012 254.153,318.128 250.631,318.322 249.700 C 318.429 249.187,318.602 248.648,318.708 248.501 C 318.813 248.354,319.062 247.515,319.261 246.636 C 319.710 244.646,319.709 244.651,319.774 244.570 C 319.826 244.506,319.869 244.345,320.150 243.171 C 320.686 240.928,321.970 234.832,321.973 234.510 C 321.976 234.290,322.100 233.571,322.249 232.911 C 322.399 232.252,322.507 231.448,322.490 231.126 C 322.474 230.803,322.580 230.465,322.727 230.375 C 322.873 230.284,322.928 230.104,322.848 229.975 C 322.769 229.846,322.838 228.925,323.003 227.928 C 323.168 226.932,323.341 225.576,323.387 224.917 C 323.434 224.257,323.550 222.878,323.645 221.852 C 323.741 220.826,323.852 218.936,323.892 217.653 C 323.933 216.369,324.015 215.270,324.075 215.210 C 324.334 214.951,324.017 202.134,323.672 198.934 C 323.608 198.348,323.481 197.089,323.388 196.136 C 323.148 193.680,323.030 192.672,322.856 191.606 C 322.773 191.093,322.652 190.193,322.588 189.607 C 322.524 189.021,322.401 188.241,322.314 187.875 C 322.227 187.508,322.114 186.789,322.062 186.276 C 322.010 185.763,321.771 184.504,321.531 183.478 C 321.291 182.452,321.046 181.312,320.986 180.946 C 320.755 179.535,319.295 173.827,318.873 172.685 C 318.629 172.025,318.385 171.246,318.330 170.953 C 318.111 169.785,317.945 169.230,317.652 168.682 C 317.483 168.367,317.410 168.044,317.489 167.965 C 317.569 167.885,317.449 167.464,317.224 167.029 C 316.999 166.593,316.768 166.039,316.711 165.797 C 316.654 165.555,316.296 164.517,315.917 163.491 C 315.538 162.465,315.169 161.341,315.098 160.994 C 314.963 160.340,313.990 158.294,313.813 158.294 C 313.725 158.294,313.920 159.218,314.348 160.826 C 314.426 161.119,314.532 161.719,314.585 162.159 C 314.637 162.598,314.757 163.258,314.851 163.624 C 314.945 163.991,315.066 164.650,315.119 165.090 C 315.233 166.027,315.459 167.218,315.701 168.155 C 316.012 169.358,316.069 169.613,316.180 170.286 C 316.240 170.653,316.486 171.790,316.726 172.813 C 316.966 173.836,317.216 175.095,317.282 175.611 C 317.348 176.127,317.466 176.849,317.543 177.215 C 317.621 177.582,317.724 178.241,317.773 178.681 C 317.911 179.934,318.204 182.308,318.364 183.478 C 318.981 187.978,319.242 198.553,318.874 204.131 C 318.590 208.451,318.537 209.107,318.321 211.059 C 318.216 212.012,318.092 213.151,318.045 213.591 C 317.998 214.031,317.891 214.810,317.806 215.323 C 317.578 216.703,317.346 218.266,317.213 219.320 C 317.148 219.833,316.974 220.733,316.825 221.319 C 316.677 221.905,316.516 222.685,316.466 223.051 C 316.416 223.418,316.354 223.718,316.328 223.718 C 316.281 223.718,316.212 223.998,315.971 225.183 C 315.607 226.969,315.226 228.554,315.073 228.914 C 314.979 229.134,314.883 229.494,314.858 229.714 C 314.791 230.313,314.460 231.568,314.016 232.911 C 313.797 233.571,313.446 234.770,313.235 235.576 C 313.024 236.382,312.743 237.282,312.611 237.575 C 312.479 237.868,312.048 239.067,311.654 240.240 C 310.944 242.354,310.713 242.960,310.032 244.504 C 308.849 247.189,308.508 248.004,308.445 248.302 C 308.291 249.033,305.586 254.605,305.330 254.719 C 305.220 254.768,305.130 255.028,305.130 255.296 C 305.130 255.565,305.040 255.825,304.930 255.874 C 304.820 255.923,304.256 256.922,303.676 258.095 C 303.096 259.267,302.527 260.266,302.410 260.315 C 302.294 260.364,302.199 260.574,302.199 260.782 C 302.199 260.989,302.103 261.159,301.987 261.159 C 301.870 261.159,301.555 261.693,301.286 262.346 C 301.017 262.998,300.602 263.751,300.365 264.018 C 300.128 264.286,299.705 264.951,299.425 265.497 C 299.145 266.043,298.816 266.489,298.692 266.489 C 298.569 266.489,298.468 266.669,298.468 266.889 C 298.468 267.109,298.356 267.288,298.219 267.288 C 298.082 267.288,297.888 267.550,297.787 267.869 C 297.685 268.188,297.317 268.756,296.969 269.132 C 296.621 269.507,296.336 269.966,296.336 270.151 C 296.336 270.335,296.244 270.486,296.132 270.486 C 296.020 270.486,295.632 270.966,295.270 271.552 C 294.907 272.139,294.499 272.618,294.363 272.618 C 294.227 272.618,294.185 272.688,294.271 272.774 C 294.356 272.860,294.227 273.170,293.982 273.463 C 293.082 274.542,292.727 274.989,292.222 275.678 C 291.938 276.066,291.511 276.608,291.272 276.882 C 291.034 277.157,290.607 277.701,290.323 278.091 C 290.039 278.481,289.507 279.133,289.141 279.540 C 288.774 279.948,287.875 280.965,287.142 281.800 C 286.409 282.636,285.302 283.832,284.682 284.458 C 284.061 285.084,283.631 285.675,283.727 285.770 C 283.822 285.865,283.773 285.943,283.618 285.943 C 283.463 285.943,282.076 287.172,280.536 288.674 C 278.995 290.177,277.109 291.945,276.344 292.605 C 275.579 293.264,274.615 294.104,274.203 294.470 C 273.043 295.501,272.265 296.069,272.015 296.069 C 271.890 296.069,271.861 296.189,271.952 296.336 C 272.043 296.482,271.930 296.602,271.701 296.602 C 271.473 296.602,271.286 296.699,271.286 296.817 C 271.286 296.936,270.503 297.608,269.545 298.310 C 268.588 299.013,267.659 299.728,267.480 299.898 C 267.301 300.068,265.896 301.044,264.357 302.067 C 262.818 303.089,261.439 304.022,261.292 304.140 C 260.469 304.799,258.093 306.172,257.530 306.313 C 257.169 306.404,256.933 306.574,257.006 306.692 C 257.079 306.810,256.479 307.180,255.674 307.514 C 254.868 307.848,254.053 308.276,253.864 308.466 C 253.675 308.655,252.510 309.316,251.277 309.935 C 250.043 310.554,248.974 311.152,248.901 311.265 C 248.827 311.378,247.928 311.829,246.902 312.268 C 245.876 312.707,244.017 313.505,242.771 314.041 C 241.526 314.576,240.446 315.000,240.373 314.982 C 240.300 314.964,239.460 315.318,238.508 315.769 C 237.555 316.220,236.620 316.589,236.429 316.589 C 236.239 316.589,235.699 316.788,235.230 317.031 C 234.761 317.274,234.017 317.563,233.578 317.674 C 233.138 317.785,232.156 318.113,231.395 318.403 C 230.634 318.693,229.967 318.885,229.912 318.830 C 229.857 318.776,229.160 318.976,228.364 319.276 C 227.567 319.575,226.676 319.864,226.382 319.918 C 226.089 319.971,225.190 320.213,224.384 320.456 C 223.578 320.699,222.738 320.926,222.518 320.961 C 222.298 320.996,221.861 321.110,221.547 321.215 C 221.232 321.319,220.633 321.454,220.214 321.515 C 219.501 321.620,219.150 321.695,217.655 322.068 C 217.325 322.150,216.696 322.264,216.256 322.320 C 215.816 322.376,215.157 322.474,214.790 322.537 C 214.424 322.600,213.584 322.733,212.925 322.833 C 212.265 322.934,211.267 323.135,210.707 323.282 C 210.147 323.429,209.128 323.591,208.442 323.644 C 207.756 323.696,206.536 323.813,205.730 323.904 C 201.459 324.383,191.092 324.838,190.007 324.594 C 189.933 324.578,188.135 324.505,186.009 324.433 C 182.682 324.320,181.079 324.197,181.079 324.055 C 181.079 324.035,180.300 323.980,179.347 323.933 C 178.394 323.885,177.435 323.775,177.215 323.688 C 176.995 323.601,176.576 323.571,176.282 323.622 C 175.989 323.673,175.638 323.650,175.502 323.571 C 175.366 323.492,174.887 323.402,174.436 323.372 C 173.986 323.341,173.138 323.234,172.552 323.133 C 170.882 322.847,170.287 322.751,169.042 322.564 C 168.404 322.469,167.819 322.289,167.743 322.166 C 167.667 322.043,167.434 322.007,167.226 322.087 C 167.018 322.167,166.702 322.143,166.525 322.033 C 166.347 321.923,165.891 321.800,165.512 321.760 C 165.134 321.720,164.584 321.622,164.290 321.544 C 163.997 321.465,163.218 321.266,162.558 321.102 C 161.899 320.937,161.239 320.771,161.093 320.732 C 160.946 320.693,160.316 320.569,159.694 320.456 C 159.071 320.344,158.561 320.158,158.561 320.043 C 158.561 319.928,158.351 319.865,158.095 319.903 C 157.838 319.941,157.448 319.885,157.229 319.779 C 156.746 319.546,155.038 318.998,154.375 318.865 C 153.984 318.786,151.261 317.848,149.500 317.185 C 149.280 317.102,149.041 317.023,148.967 317.009 C 148.434 316.904,144.543 315.396,144.437 315.252 C 144.364 315.153,143.948 314.985,143.513 314.878 C 142.723 314.685,141.198 314.024,138.170 312.565 C 137.288 312.140,136.419 311.792,136.238 311.792 C 136.057 311.792,135.908 311.702,135.907 311.592 C 135.905 311.482,135.366 311.156,134.708 310.866 C 134.049 310.577,133.511 310.227,133.511 310.089 C 133.511 309.951,133.433 309.916,133.337 310.012 C 133.241 310.108,132.780 309.949,132.312 309.660 C 131.844 309.371,131.382 309.213,131.287 309.308 C 131.191 309.404,131.113 309.343,131.113 309.172 C 131.113 309.001,130.994 308.861,130.849 308.861 C 130.704 308.861,129.756 308.329,128.743 307.680 C 127.730 307.031,126.829 306.571,126.742 306.658 C 126.654 306.746,126.582 306.678,126.582 306.507 C 126.582 306.336,126.402 306.196,126.183 306.196 C 125.963 306.196,125.783 306.076,125.783 305.929 C 125.783 305.783,125.603 305.663,125.383 305.663 C 125.163 305.663,124.983 305.545,124.983 305.401 C 124.983 305.258,124.684 305.065,124.317 304.973 C 123.951 304.881,123.651 304.699,123.651 304.568 C 123.651 304.437,123.526 304.330,123.373 304.330 C 123.221 304.330,122.843 304.095,122.533 303.807 C 122.224 303.519,121.869 303.346,121.745 303.423 C 121.621 303.500,121.519 303.435,121.519 303.280 C 121.519 303.125,121.400 302.998,121.256 302.998 C 121.111 302.998,120.781 302.817,120.523 302.596 C 120.265 302.375,119.993 302.220,119.920 302.251 C 119.789 302.307,119.350 301.969,117.697 300.537 C 117.234 300.137,116.736 299.803,116.589 299.797 C 116.442 299.790,115.787 299.309,115.133 298.727 C 114.479 298.144,113.867 297.668,113.775 297.668 C 113.612 297.668,113.168 297.312,111.592 295.915 C 111.189 295.558,110.859 295.331,110.859 295.410 C 110.859 295.489,110.462 295.160,109.976 294.679 C 109.489 294.198,108.520 293.324,107.820 292.738 C 106.196 291.377,98.230 283.489,97.002 282.026 C 96.489 281.415,95.807 280.577,95.487 280.164 C 95.167 279.751,94.433 278.910,93.855 278.295 C 93.278 277.680,92.734 276.990,92.647 276.763 C 92.560 276.535,92.365 276.349,92.214 276.349 C 92.062 276.349,91.939 276.162,91.939 275.934 C 91.939 275.705,91.827 275.587,91.691 275.671 C 91.555 275.755,91.367 275.582,91.274 275.287 C 91.180 274.992,91.011 274.750,90.898 274.750 C 90.784 274.750,90.553 274.446,90.384 274.074 C 90.214 273.702,89.953 273.252,89.803 273.075 C 88.693 271.758,88.308 271.247,87.453 269.953 C 86.920 269.147,86.390 268.368,86.273 268.221 C 86.157 268.075,85.678 267.355,85.209 266.622 C 84.740 265.889,84.223 265.150,84.059 264.979 C 83.895 264.809,83.599 264.269,83.401 263.780 C 83.203 263.291,82.928 262.814,82.789 262.719 C 82.526 262.540,82.187 261.911,79.547 256.713 C 78.668 254.981,77.850 253.492,77.730 253.404 C 77.478 253.219,76.216 250.561,76.216 250.215 C 76.216 250.088,75.573 248.571,74.787 246.844 C 73.240 243.442,72.239 241.029,72.088 240.333 C 72.036 240.090,71.795 239.510,71.553 239.042 C 71.311 238.574,71.177 238.128,71.256 238.049 C 71.334 237.971,71.220 237.563,71.002 237.141 C 70.784 236.720,70.671 236.376,70.751 236.376 C 70.831 236.376,70.660 235.911,70.370 235.343 C 70.080 234.775,69.896 234.257,69.960 234.193 C 70.024 234.129,69.844 233.439,69.560 232.661 C 69.275 231.883,69.059 231.172,69.079 231.080 C 69.099 230.988,68.953 230.373,68.756 229.714 C 68.558 229.054,68.382 228.394,68.365 228.248 C 68.347 228.101,68.181 227.464,67.996 226.832 C 67.810 226.200,67.614 225.334,67.561 224.907 C 67.507 224.481,67.397 224.026,67.316 223.895 C 67.235 223.765,67.112 223.252,67.042 222.755 C 66.972 222.258,66.848 221.552,66.767 221.186 C 66.686 220.819,66.566 220.160,66.500 219.720 C 66.435 219.280,66.316 218.651,66.236 218.321 C 65.883 216.877,65.857 216.716,65.389 213.058 C 65.333 212.618,65.227 211.659,65.154 210.926 C 65.081 210.193,64.955 209.174,64.875 208.661 C 64.421 205.772,64.236 193.278,64.578 188.674 C 64.692 187.135,64.822 185.276,64.865 184.544 C 64.909 183.811,65.029 182.724,65.132 182.129 C 65.235 181.534,65.360 180.515,65.409 179.864 C 65.458 179.213,65.561 178.501,65.638 178.281 C 65.715 178.061,65.782 177.702,65.788 177.482 C 65.802 176.880,66.060 175.038,66.235 174.284 C 66.320 173.917,66.435 173.258,66.489 172.818 C 66.544 172.378,66.611 171.989,66.639 171.952 C 66.666 171.915,66.714 171.676,66.745 171.419 C 66.776 171.163,66.874 170.773,66.963 170.553 C 67.107 170.194,67.461 168.539,67.846 166.411 C 67.923 165.987,68.098 165.505,68.235 165.340 C 68.371 165.176,68.409 164.967,68.319 164.877 C 68.228 164.786,68.348 164.228,68.585 163.635 C 68.822 163.043,68.963 162.558,68.897 162.558 C 68.831 162.558,68.967 162.049,69.199 161.426 C 69.431 160.803,69.607 160.023,69.590 159.694 C 69.573 159.364,69.665 159.094,69.793 159.094 C 69.922 159.094,70.109 158.659,70.208 158.128 C 70.308 157.597,70.491 156.968,70.615 156.729 C 70.739 156.491,71.158 155.336,71.548 154.164 C 71.937 152.991,72.367 151.824,72.503 151.569 C 72.640 151.315,72.751 150.978,72.751 150.822 C 72.751 150.560,73.175 149.530,74.281 147.102 C 74.514 146.589,74.706 146.019,74.706 145.836 C 74.706 145.653,74.806 145.503,74.928 145.503 C 75.050 145.503,75.154 145.353,75.159 145.170 C 75.164 144.987,75.400 144.357,75.683 143.771 C 75.966 143.185,76.202 142.555,76.207 142.372 C 76.212 142.189,76.336 142.039,76.482 142.039 C 76.629 142.039,76.749 141.895,76.749 141.719 C 76.749 141.306,79.217 136.337,79.480 136.220 C 79.590 136.171,79.680 135.912,79.680 135.643 C 79.680 135.374,79.770 135.114,79.880 135.066 C 79.990 135.017,80.307 134.557,80.585 134.044 C 80.862 133.531,81.282 132.759,81.517 132.327 C 81.753 131.896,82.160 131.299,82.422 131.000 C 82.684 130.701,82.967 130.185,83.051 129.852 C 83.134 129.519,83.309 129.247,83.440 129.247 C 83.571 129.247,83.678 129.122,83.678 128.970 C 83.678 128.817,83.913 128.439,84.201 128.130 C 84.489 127.821,84.662 127.466,84.585 127.341 C 84.508 127.217,84.573 127.115,84.728 127.115 C 84.883 127.115,85.010 126.990,85.010 126.838 C 85.010 126.685,85.246 126.307,85.534 125.998 C 85.822 125.689,85.995 125.334,85.918 125.209 C 85.841 125.085,85.877 124.983,85.997 124.983 C 86.118 124.983,86.513 124.504,86.875 123.917 C 87.238 123.331,87.626 122.851,87.738 122.851 C 87.850 122.851,87.941 122.690,87.941 122.492 C 87.941 122.152,88.179 121.831,89.695 120.120 C 90.052 119.717,90.284 119.387,90.211 119.387 C 90.090 119.387,90.595 118.713,91.282 117.958 C 91.434 117.791,91.914 117.180,92.348 116.600 C 92.782 116.019,93.498 115.153,93.937 114.675 C 95.032 113.485,95.403 113.035,95.403 112.895 C 95.403 112.336,106.881 100.999,107.447 100.999 C 107.582 100.999,107.619 100.879,107.528 100.733 C 107.438 100.586,107.505 100.466,107.677 100.466 C 107.849 100.466,108.437 100.017,108.982 99.467 C 109.527 98.917,110.244 98.288,110.574 98.068 C 110.905 97.848,111.434 97.448,111.750 97.179 C 112.066 96.910,112.662 96.430,113.073 96.113 C 113.484 95.796,114.084 95.316,114.405 95.047 C 114.727 94.778,115.311 94.303,115.703 93.990 C 116.095 93.678,116.358 93.328,116.287 93.213 C 116.216 93.099,116.262 93.005,116.389 93.005 C 116.607 93.005,116.981 92.721,119.456 90.673 C 120.499 89.810,120.532 89.546,119.524 90.130 " stroke="none" fill="#0c9444" fill-rule="evenodd"></path><path id="path1" d="M196.203 66.082 L 195.070 66.596 195.070 71.553 L 195.070 76.510 196.069 76.931 C 198.235 77.843,201.495 77.145,202.797 75.490 C 203.700 74.343,203.490 74.038,202.199 74.624 C 196.662 77.137,193.138 70.959,197.672 66.689 L 198.875 65.556 198.105 65.562 C 197.682 65.565,196.825 65.799,196.203 66.082 M194.579 79.271 C 192.716 81.541,190.797 83.191,185.876 86.752 C 183.971 88.131,182.172 89.447,181.879 89.677 C 181.372 90.075,181.342 90.462,181.267 97.512 L 181.189 104.928 181.800 105.092 C 182.137 105.182,190.656 105.258,200.733 105.260 L 219.054 105.263 219.054 104.170 C 219.054 98.786,214.761 92.665,207.062 87.073 C 201.335 82.913,198.736 80.554,197.084 78.015 C 196.434 77.016,196.428 77.019,194.579 79.271 M120.720 89.285 C 119.794 89.803,119.793 89.806,120.584 89.629 C 121.022 89.531,121.540 89.291,121.735 89.096 C 122.236 88.595,121.812 88.674,120.720 89.285 M101.531 109.061 C 101.139 109.597,101.075 109.783,101.363 109.549 C 101.800 109.194,102.460 108.195,102.258 108.195 C 102.207 108.195,101.880 108.584,101.531 109.061 M242.955 111.334 C 238.999 113.609,238.861 119.789,242.724 121.701 L 243.810 122.238 243.273 123.325 C 242.413 125.063,240.509 126.608,237.110 128.329 L 233.980 129.913 233.979 145.471 L 233.977 161.029 234.977 160.855 C 243.437 159.378,250.513 158.627,258.324 158.378 L 263.617 158.209 263.494 150.057 C 263.295 136.715,261.760 133.824,252.302 128.962 C 247.686 126.589,245.573 124.925,244.967 123.185 L 244.665 122.318 245.861 122.318 C 247.338 122.318,248.815 121.590,249.942 120.308 C 250.978 119.127,250.852 118.893,249.521 119.524 C 244.036 122.127,240.204 116.334,244.538 111.992 L 245.935 110.593 245.086 110.595 C 244.619 110.596,243.660 110.929,242.955 111.334 M181.213 151.022 L 181.213 190.736 182.212 190.902 C 182.761 190.992,191.276 191.068,201.133 191.070 L 219.054 191.073 219.054 151.366 L 219.054 111.659 206.172 111.659 C 199.087 111.659,190.573 111.580,187.252 111.483 L 181.213 111.307 181.213 151.022 M148.173 111.956 C 146.603 112.583,146.569 112.701,146.569 117.479 C 146.569 121.612,146.604 121.922,147.139 122.491 C 148.477 123.916,146.022 126.409,140.550 129.184 C 134.748 132.125,132.373 134.206,130.735 137.785 C 129.406 140.689,129.299 141.606,129.265 150.340 L 129.234 158.509 132.105 158.667 C 143.892 159.318,148.366 159.748,154.754 160.843 C 156.837 161.200,158.607 161.492,158.687 161.492 C 158.767 161.492,158.801 154.507,158.763 145.970 L 158.694 130.448 155.496 128.815 C 152.200 127.132,150.047 125.500,149.352 124.155 L 148.954 123.384 150.168 123.384 C 151.691 123.384,153.112 122.802,154.231 121.720 C 155.180 120.801,155.411 119.996,154.630 120.327 C 148.290 123.014,144.355 117.058,149.539 112.620 L 150.662 111.659 149.748 111.676 C 149.245 111.685,148.537 111.811,148.173 111.956 M90.378 125.821 C 90.190 126.122,90.095 126.426,90.166 126.498 C 90.238 126.569,90.436 126.368,90.606 126.049 C 90.777 125.731,90.872 125.426,90.818 125.372 C 90.764 125.318,90.566 125.520,90.378 125.821 M86.885 132.694 C 86.547 133.325,86.532 133.590,86.843 133.398 C 87.078 133.252,87.445 132.179,87.260 132.179 C 87.205 132.179,87.037 132.411,86.885 132.694 M84.617 137.870 C 84.540 138.111,84.421 138.488,84.352 138.708 C 84.283 138.927,84.286 139.107,84.359 139.107 C 84.562 139.107,85.042 137.718,84.890 137.566 C 84.817 137.493,84.693 137.629,84.617 137.870 M82.864 142.209 C 82.717 142.596,82.657 142.973,82.731 143.046 C 82.852 143.167,82.983 142.886,83.295 141.839 C 83.484 141.205,83.130 141.509,82.864 142.209 M314.209 158.694 C 314.209 158.841,314.381 159.260,314.590 159.627 C 314.800 159.993,314.971 160.173,314.971 160.027 C 314.971 159.880,314.800 159.460,314.590 159.094 C 314.381 158.728,314.209 158.548,314.209 158.694 M59.190 159.657 C 59.026 160.127,58.938 160.559,58.995 160.616 C 59.052 160.673,59.233 160.335,59.397 159.864 C 59.562 159.393,59.649 158.961,59.592 158.904 C 59.535 158.847,59.354 159.186,59.190 159.657 M316.069 164.024 C 316.062 164.420,316.538 165.097,316.705 164.930 C 316.785 164.850,316.675 164.553,316.461 164.271 C 316.248 163.989,316.071 163.877,316.069 164.024 M56.522 167.128 C 56.169 168.142,56.155 168.342,56.461 168.008 C 56.716 167.730,57.106 166.289,56.927 166.289 C 56.865 166.289,56.683 166.667,56.522 167.128 M55.626 170.202 C 55.559 170.322,55.432 170.779,55.344 171.219 C 55.186 172.015,55.187 172.014,55.587 171.122 C 55.936 170.344,55.968 169.599,55.626 170.202 M316.322 187.342 C 316.322 187.928,316.370 188.408,316.428 188.408 C 316.486 188.408,316.579 187.928,316.635 187.342 C 316.691 186.755,316.643 186.276,316.529 186.276 C 316.416 186.276,316.322 186.755,316.322 187.342 M183.344 196.003 L 183.344 199.867 200.000 199.867 L 216.656 199.867 216.656 196.003 L 216.656 192.139 200.000 192.139 L 183.344 192.139 183.344 196.003 M316.087 194.848 C 316.070 195.093,315.987 195.513,315.903 195.781 C 315.757 196.244,315.765 196.244,316.054 195.794 C 316.221 195.533,316.304 195.114,316.238 194.862 C 316.130 194.449,316.115 194.448,316.087 194.848 M184.207 226.582 L 184.277 251.965 186.635 255.430 C 189.080 259.023,192.577 265.732,194.411 270.353 L 195.470 273.018 195.632 265.023 C 195.721 260.626,195.810 252.412,195.830 246.769 L 195.866 236.509 195.091 236.068 C 192.213 234.431,193.235 229.980,196.489 229.980 C 199.814 229.980,200.932 234.199,198.078 235.976 L 197.222 236.509 197.212 254.750 C 197.206 265.934,197.297 272.893,197.448 272.738 C 197.584 272.599,198.073 271.526,198.535 270.353 C 202.002 261.548,207.284 253.066,212.991 247.139 L 215.590 244.441 215.587 228.616 C 215.585 212.896,215.380 208.445,214.372 202.199 L 214.210 201.199 199.173 201.199 L 184.136 201.199 184.207 226.582 M323.818 220.318 C 323.783 221.008,323.809 221.515,323.877 221.446 C 324.064 221.255,324.189 219.370,324.026 219.207 C 323.947 219.128,323.854 219.628,323.818 220.318 M322.953 228.589 C 322.865 229.119,322.904 229.367,323.052 229.220 C 323.186 229.085,323.252 228.692,323.197 228.345 C 323.113 227.812,323.076 227.849,322.953 228.589 M319.565 245.423 C 319.409 245.870,319.338 246.236,319.408 246.236 C 319.587 246.236,320.090 244.852,319.958 244.720 C 319.898 244.659,319.721 244.976,319.565 245.423 M317.418 252.661 C 317.254 253.132,317.166 253.564,317.223 253.621 C 317.280 253.678,317.461 253.339,317.625 252.868 C 317.789 252.398,317.877 251.966,317.820 251.909 C 317.763 251.852,317.582 252.190,317.418 252.661 M56.775 252.498 C 56.768 252.894,57.244 253.571,57.411 253.404 C 57.491 253.324,57.381 253.028,57.168 252.745 C 56.954 252.463,56.777 252.352,56.775 252.498 M59.849 260.626 C 60.046 261.368,60.172 261.569,60.338 261.403 C 60.399 261.342,60.274 260.992,60.060 260.626 L 59.671 259.960 59.849 260.626 M61.836 265.290 C 61.813 265.613,65.352 272.911,65.473 272.790 C 65.520 272.743,64.726 270.976,63.707 268.864 C 62.689 266.752,61.847 265.143,61.836 265.290 M298.746 289.917 C 298.583 290.223,298.560 290.473,298.696 290.473 C 298.970 290.473,299.348 289.666,299.162 289.479 C 299.097 289.414,298.910 289.612,298.746 289.917 M89.942 306.730 C 90.208 307.025,90.480 307.210,90.548 307.143 C 90.692 306.999,89.932 306.196,89.651 306.196 C 89.545 306.196,89.675 306.436,89.942 306.730 M254.697 329.533 C 253.701 330.073,253.761 330.298,254.763 329.780 C 255.203 329.553,255.563 329.310,255.563 329.240 C 255.563 329.069,255.534 329.079,254.697 329.533 M246.334 333.844 C 244.264 334.833,242.653 335.675,242.754 335.715 C 242.854 335.754,244.668 334.950,246.785 333.927 C 248.901 332.904,250.512 332.062,250.365 332.056 C 250.218 332.050,248.404 332.855,246.334 333.844 M238.175 337.418 C 237.771 337.566,237.442 337.799,237.442 337.937 C 237.442 338.075,237.801 338.002,238.241 337.775 C 238.859 337.455,239.371 337.004,238.974 337.130 C 238.937 337.141,238.578 337.271,238.175 337.418 " stroke="none" fill="#e4c669" fill-rule="evenodd"></path><path id="path2" d="M112.019 96.940 C 111.558 97.340,110.909 97.848,110.577 98.068 C 110.245 98.288,109.527 98.917,108.982 99.467 C 108.437 100.017,107.849 100.466,107.677 100.466 C 107.505 100.466,107.438 100.586,107.528 100.733 C 107.619 100.879,107.582 100.999,107.447 100.999 C 106.881 100.999,95.403 112.336,95.403 112.895 C 95.403 113.035,95.032 113.485,93.937 114.675 C 93.498 115.153,92.780 116.019,92.343 116.600 C 91.387 117.869,90.858 118.523,90.387 119.017 C 90.194 119.221,90.105 119.387,90.190 119.387 C 90.274 119.387,90.052 119.717,89.695 120.120 C 88.179 121.831,87.941 122.152,87.941 122.492 C 87.941 122.690,87.850 122.851,87.738 122.851 C 87.626 122.851,87.238 123.331,86.875 123.917 C 86.513 124.504,86.118 124.983,85.997 124.983 C 85.877 124.983,85.841 125.085,85.918 125.209 C 85.995 125.334,85.822 125.689,85.534 125.998 C 85.246 126.307,85.010 126.685,85.010 126.838 C 85.010 126.990,84.883 127.115,84.728 127.115 C 84.573 127.115,84.508 127.217,84.585 127.341 C 84.662 127.466,84.489 127.821,84.201 128.130 C 83.913 128.439,83.678 128.817,83.678 128.970 C 83.678 129.122,83.571 129.247,83.440 129.247 C 83.309 129.247,83.134 129.519,83.051 129.852 C 82.967 130.185,82.684 130.701,82.422 131.000 C 81.975 131.510,81.710 131.949,80.546 134.111 C 80.290 134.587,79.990 135.017,79.880 135.066 C 79.770 135.114,79.680 135.374,79.680 135.643 C 79.680 135.912,79.590 136.171,79.480 136.220 C 79.217 136.337,76.749 141.306,76.749 141.719 C 76.749 141.895,76.629 142.039,76.482 142.039 C 76.336 142.039,76.212 142.189,76.207 142.372 C 76.202 142.555,75.966 143.185,75.683 143.771 C 75.400 144.357,75.164 144.987,75.159 145.170 C 75.154 145.353,75.050 145.503,74.928 145.503 C 74.806 145.503,74.704 145.653,74.702 145.836 C 74.699 146.134,74.361 146.960,73.132 149.674 C 72.923 150.136,72.751 150.647,72.751 150.810 C 72.751 150.973,72.640 151.315,72.503 151.569 C 72.367 151.824,71.937 152.991,71.548 154.164 C 71.158 155.336,70.739 156.491,70.615 156.729 C 70.491 156.968,70.308 157.597,70.208 158.128 C 70.109 158.659,69.922 159.094,69.793 159.094 C 69.665 159.094,69.573 159.364,69.590 159.694 C 69.607 160.023,69.431 160.803,69.199 161.426 C 68.967 162.049,68.831 162.558,68.897 162.558 C 68.963 162.558,68.822 163.043,68.585 163.635 C 68.348 164.228,68.228 164.786,68.319 164.877 C 68.409 164.967,68.371 165.176,68.235 165.340 C 68.098 165.505,67.923 165.987,67.846 166.411 C 67.461 168.539,67.107 170.194,66.963 170.553 C 66.874 170.773,66.776 171.163,66.745 171.419 C 66.714 171.676,66.666 171.915,66.639 171.952 C 66.611 171.989,66.544 172.378,66.489 172.818 C 66.435 173.258,66.320 173.917,66.235 174.284 C 66.060 175.038,65.802 176.880,65.788 177.482 C 65.782 177.702,65.715 178.061,65.638 178.281 C 65.561 178.501,65.458 179.213,65.409 179.864 C 65.360 180.515,65.235 181.534,65.132 182.129 C 65.029 182.724,64.909 183.811,64.865 184.544 C 64.822 185.276,64.692 187.135,64.578 188.674 C 64.236 193.278,64.421 205.772,64.875 208.661 C 64.955 209.174,65.081 210.193,65.154 210.926 C 65.227 211.659,65.333 212.618,65.389 213.058 C 65.857 216.716,65.883 216.877,66.236 218.321 C 66.316 218.651,66.435 219.280,66.500 219.720 C 66.566 220.160,66.686 220.819,66.767 221.186 C 66.848 221.552,66.972 222.258,67.042 222.755 C 67.112 223.252,67.235 223.765,67.316 223.895 C 67.397 224.026,67.507 224.481,67.561 224.907 C 67.614 225.334,67.810 226.200,67.996 226.832 C 68.181 227.464,68.347 228.101,68.365 228.248 C 68.382 228.394,68.558 229.054,68.756 229.714 C 68.953 230.373,69.099 230.988,69.079 231.080 C 69.059 231.172,69.275 231.883,69.560 232.661 C 69.844 233.439,70.024 234.129,69.960 234.193 C 69.896 234.257,70.080 234.775,70.370 235.343 C 70.660 235.911,70.831 236.376,70.751 236.376 C 70.671 236.376,70.784 236.720,71.002 237.141 C 71.220 237.563,71.334 237.971,71.256 238.049 C 71.177 238.128,71.311 238.574,71.553 239.042 C 71.795 239.510,72.036 240.090,72.088 240.333 C 72.239 241.029,73.240 243.442,74.787 246.844 C 75.573 248.571,76.216 250.088,76.216 250.215 C 76.216 250.561,77.478 253.219,77.730 253.404 C 77.850 253.492,78.668 254.981,79.547 256.713 C 82.187 261.911,82.526 262.540,82.789 262.719 C 82.928 262.814,83.203 263.291,83.401 263.780 C 83.599 264.269,83.895 264.809,84.059 264.979 C 84.223 265.150,84.740 265.889,85.209 266.622 C 85.678 267.355,86.157 268.075,86.273 268.221 C 86.390 268.368,86.920 269.147,87.453 269.953 C 88.308 271.247,88.693 271.758,89.803 273.075 C 89.953 273.252,90.214 273.702,90.384 274.074 C 90.553 274.446,90.784 274.750,90.898 274.750 C 91.011 274.750,91.180 274.992,91.274 275.287 C 91.367 275.582,91.555 275.755,91.691 275.671 C 91.827 275.587,91.939 275.705,91.939 275.934 C 91.939 276.162,92.062 276.349,92.214 276.349 C 92.365 276.349,92.560 276.535,92.647 276.763 C 92.734 276.990,93.278 277.680,93.855 278.295 C 94.433 278.910,95.167 279.751,95.487 280.164 C 95.807 280.577,96.489 281.415,97.002 282.026 C 98.230 283.489,106.196 291.377,107.820 292.738 C 108.520 293.324,109.489 294.198,109.976 294.679 C 110.462 295.160,110.859 295.489,110.859 295.410 C 110.859 295.331,111.189 295.558,111.592 295.915 C 113.168 297.312,113.612 297.668,113.775 297.668 C 113.867 297.668,114.479 298.144,115.133 298.727 C 115.787 299.309,116.442 299.790,116.589 299.797 C 116.736 299.803,117.234 300.137,117.697 300.537 C 119.360 301.977,119.788 302.306,119.845 302.186 C 119.877 302.120,120.148 302.275,120.447 302.532 C 120.747 302.788,121.111 302.998,121.256 302.998 C 121.400 302.998,121.519 303.125,121.519 303.280 C 121.519 303.435,121.621 303.500,121.745 303.423 C 121.869 303.346,122.224 303.519,122.533 303.807 C 122.843 304.095,123.221 304.330,123.373 304.330 C 123.526 304.330,123.651 304.437,123.651 304.568 C 123.651 304.699,123.951 304.881,124.317 304.973 C 124.684 305.065,124.983 305.258,124.983 305.401 C 124.983 305.545,125.163 305.663,125.383 305.663 C 125.603 305.663,125.783 305.783,125.783 305.929 C 125.783 306.076,125.963 306.196,126.183 306.196 C 126.402 306.196,126.582 306.336,126.582 306.507 C 126.582 306.678,126.654 306.746,126.742 306.658 C 126.829 306.571,127.730 307.031,128.743 307.680 C 129.756 308.329,130.704 308.861,130.849 308.861 C 130.994 308.861,131.113 309.001,131.113 309.172 C 131.113 309.343,131.191 309.404,131.287 309.308 C 131.382 309.213,131.844 309.371,132.312 309.660 C 132.780 309.949,133.241 310.108,133.337 310.012 C 133.433 309.916,133.511 309.951,133.511 310.089 C 133.511 310.227,134.049 310.577,134.708 310.866 C 135.366 311.156,135.905 311.482,135.907 311.592 C 135.908 311.702,136.057 311.792,136.238 311.792 C 136.419 311.792,137.288 312.140,138.170 312.565 C 141.198 314.024,142.723 314.685,143.513 314.878 C 143.948 314.985,144.364 315.153,144.437 315.252 C 144.543 315.396,148.434 316.904,148.967 317.009 C 149.041 317.023,149.280 317.102,149.500 317.185 C 151.261 317.848,153.984 318.786,154.375 318.865 C 155.038 318.998,156.746 319.546,157.229 319.779 C 157.448 319.885,157.838 319.941,158.095 319.903 C 158.351 319.865,158.561 319.928,158.561 320.043 C 158.561 320.158,159.071 320.344,159.694 320.456 C 160.316 320.569,160.946 320.693,161.093 320.732 C 161.239 320.771,161.899 320.937,162.558 321.102 C 163.218 321.266,163.997 321.465,164.290 321.544 C 164.584 321.622,165.123 321.724,165.490 321.771 C 165.856 321.817,166.360 321.940,166.609 322.044 C 166.859 322.148,167.180 322.160,167.324 322.071 C 167.467 321.983,167.652 322.018,167.733 322.150 C 167.815 322.282,168.404 322.469,169.042 322.564 C 170.287 322.751,170.882 322.847,172.552 323.133 C 173.138 323.234,173.986 323.341,174.436 323.372 C 174.887 323.402,175.366 323.492,175.502 323.571 C 175.638 323.650,175.989 323.673,176.282 323.622 C 176.576 323.571,176.995 323.601,177.215 323.688 C 177.435 323.775,178.394 323.885,179.347 323.933 C 180.300 323.980,181.079 324.035,181.079 324.055 C 181.079 324.197,182.682 324.320,186.009 324.433 C 188.135 324.505,189.933 324.578,190.007 324.594 C 191.092 324.838,201.459 324.383,205.730 323.904 C 206.536 323.813,207.756 323.696,208.442 323.644 C 209.128 323.591,210.147 323.429,210.707 323.282 C 211.267 323.135,212.265 322.934,212.925 322.833 C 213.584 322.733,214.424 322.600,214.790 322.537 C 215.157 322.474,215.816 322.376,216.256 322.320 C 216.696 322.264,217.325 322.150,217.655 322.068 C 219.150 321.695,219.501 321.620,220.214 321.515 C 220.633 321.454,221.232 321.319,221.547 321.215 C 221.861 321.110,222.298 320.996,222.518 320.961 C 222.738 320.926,223.578 320.699,224.384 320.456 C 225.190 320.213,226.089 319.971,226.382 319.918 C 226.676 319.864,227.567 319.575,228.364 319.276 C 229.160 318.976,229.857 318.776,229.912 318.830 C 229.967 318.885,230.634 318.693,231.395 318.403 C 232.156 318.113,233.138 317.785,233.578 317.674 C 234.017 317.563,234.761 317.274,235.230 317.031 C 235.699 316.788,236.239 316.589,236.429 316.589 C 236.620 316.589,237.527 316.233,238.445 315.799 C 239.364 315.364,240.149 315.034,240.189 315.066 C 240.230 315.097,241.337 314.660,242.650 314.095 C 243.963 313.529,245.876 312.707,246.902 312.268 C 247.928 311.829,248.827 311.378,248.901 311.265 C 248.974 311.152,250.043 310.554,251.277 309.935 C 252.510 309.316,253.675 308.655,253.864 308.466 C 254.053 308.276,254.868 307.848,255.674 307.514 C 256.479 307.180,257.079 306.810,257.006 306.692 C 256.933 306.574,257.169 306.404,257.530 306.313 C 258.093 306.172,260.469 304.799,261.292 304.140 C 261.439 304.022,262.818 303.089,264.357 302.067 C 265.896 301.044,267.301 300.068,267.480 299.898 C 267.659 299.728,268.588 299.013,269.545 298.310 C 270.503 297.608,271.286 296.936,271.286 296.817 C 271.286 296.699,271.473 296.602,271.701 296.602 C 271.930 296.602,272.043 296.482,271.952 296.336 C 271.861 296.189,271.890 296.069,272.015 296.069 C 272.265 296.069,273.043 295.501,274.203 294.470 C 274.615 294.104,275.579 293.264,276.344 292.605 C 277.109 291.945,278.995 290.177,280.536 288.674 C 282.076 287.172,283.463 285.943,283.618 285.943 C 283.773 285.943,283.822 285.865,283.727 285.770 C 283.631 285.675,284.061 285.084,284.682 284.458 C 285.302 283.832,286.409 282.636,287.142 281.800 C 287.875 280.965,288.774 279.948,289.141 279.540 C 289.507 279.133,290.039 278.481,290.323 278.091 C 290.607 277.701,291.034 277.157,291.272 276.882 C 291.511 276.608,291.938 276.066,292.222 275.678 C 292.727 274.989,293.082 274.542,293.982 273.463 C 294.227 273.170,294.356 272.860,294.271 272.774 C 294.185 272.688,294.227 272.618,294.363 272.618 C 294.499 272.618,294.907 272.139,295.270 271.552 C 295.632 270.966,296.020 270.486,296.132 270.486 C 296.244 270.486,296.336 270.335,296.336 270.151 C 296.336 269.966,296.621 269.507,296.969 269.132 C 297.317 268.756,297.685 268.188,297.787 267.869 C 297.888 267.550,298.082 267.288,298.219 267.288 C 298.356 267.288,298.468 267.109,298.468 266.889 C 298.468 266.669,298.569 266.489,298.692 266.489 C 298.816 266.489,299.145 266.043,299.425 265.497 C 299.705 264.951,300.128 264.286,300.365 264.018 C 300.602 263.751,301.017 262.998,301.286 262.346 C 301.555 261.693,301.870 261.159,301.987 261.159 C 302.103 261.159,302.199 260.989,302.199 260.782 C 302.199 260.574,302.294 260.364,302.410 260.315 C 302.527 260.266,303.096 259.267,303.676 258.095 C 304.256 256.922,304.820 255.923,304.930 255.874 C 305.040 255.825,305.130 255.565,305.130 255.296 C 305.130 255.028,305.220 254.768,305.330 254.719 C 305.586 254.605,308.291 249.033,308.445 248.302 C 308.508 248.004,308.849 247.189,310.032 244.504 C 310.713 242.960,310.944 242.354,311.654 240.240 C 312.048 239.067,312.479 237.868,312.611 237.575 C 312.743 237.282,313.024 236.382,313.235 235.576 C 313.446 234.770,313.797 233.571,314.016 232.911 C 314.460 231.568,314.791 230.313,314.858 229.714 C 314.883 229.494,314.979 229.134,315.073 228.914 C 315.226 228.554,315.607 226.969,315.971 225.183 C 316.212 223.998,316.281 223.718,316.328 223.718 C 316.354 223.718,316.416 223.418,316.466 223.051 C 316.516 222.685,316.677 221.905,316.825 221.319 C 316.974 220.733,317.148 219.833,317.213 219.320 C 317.346 218.266,317.578 216.703,317.806 215.323 C 317.891 214.810,317.998 214.031,318.045 213.591 C 318.092 213.151,318.216 212.012,318.321 211.059 C 318.537 209.107,318.590 208.451,318.874 204.131 C 319.242 198.553,318.981 187.978,318.364 183.478 C 318.204 182.308,317.911 179.934,317.773 178.681 C 317.724 178.241,317.621 177.582,317.543 177.215 C 317.466 176.849,317.348 176.127,317.282 175.611 C 317.216 175.095,316.966 173.836,316.726 172.813 C 316.486 171.790,316.243 170.653,316.186 170.286 C 315.967 168.883,315.791 168.317,315.490 168.041 C 315.261 167.831,315.233 167.850,315.382 168.114 C 315.494 168.311,315.618 168.851,315.657 169.313 C 315.920 172.455,316.123 174.509,316.227 175.083 C 316.359 175.808,316.628 184.090,316.604 186.676 C 316.571 190.132,316.057 197.193,315.663 199.600 C 315.603 199.967,315.480 200.806,315.390 201.466 C 315.176 203.029,315.010 204.107,314.857 204.930 C 314.551 206.573,314.398 207.510,314.335 208.131 C 314.297 208.500,314.184 209.060,314.084 209.376 C 313.869 210.055,313.790 210.409,313.382 212.525 C 313.213 213.404,313.006 214.304,312.923 214.524 C 312.707 215.092,312.703 215.106,312.480 215.989 C 312.369 216.429,312.085 217.388,311.849 218.121 C 311.613 218.854,311.396 219.596,311.366 219.771 C 311.284 220.245,310.721 222.043,310.464 222.652 C 310.340 222.945,309.919 224.144,309.527 225.316 C 309.135 226.489,308.705 227.657,308.571 227.911 C 308.437 228.166,308.328 228.492,308.328 228.637 C 308.328 228.782,307.968 229.686,307.528 230.646 C 307.089 231.606,306.729 232.469,306.729 232.564 C 306.729 232.729,306.028 234.247,304.232 237.975 C 303.773 238.927,303.308 239.747,303.198 239.796 C 303.088 239.845,302.998 240.066,302.998 240.288 C 302.998 240.741,302.173 242.324,301.865 242.461 C 301.755 242.509,301.666 242.662,301.666 242.800 C 301.666 243.034,299.020 247.646,298.548 248.235 C 298.431 248.381,298.095 248.979,297.801 249.563 C 297.508 250.147,297.114 250.789,296.926 250.990 C 296.738 251.191,296.085 252.093,295.475 252.993 C 294.865 253.894,294.210 254.789,294.019 254.982 C 293.827 255.176,293.671 255.445,293.671 255.579 C 293.671 255.713,293.461 256.075,293.205 256.382 C 292.277 257.492,291.930 257.931,291.406 258.650 C 291.113 259.052,290.753 259.512,290.606 259.671 C 290.460 259.830,289.984 260.440,289.550 261.026 C 289.116 261.612,288.290 262.598,287.715 263.217 C 287.140 263.836,286.494 264.593,286.279 264.900 C 285.548 265.943,278.779 272.618,278.451 272.618 C 278.272 272.618,278.202 272.695,278.296 272.788 C 278.390 272.882,277.968 273.392,277.360 273.921 C 276.752 274.450,276.006 275.124,275.702 275.417 C 275.398 275.711,274.610 276.370,273.951 276.882 C 272.862 277.728,272.225 278.275,270.997 279.420 C 270.765 279.636,270.415 279.813,270.220 279.813 C 270.024 279.813,269.941 279.890,270.034 279.983 C 270.127 280.076,269.637 280.521,268.946 280.972 C 268.254 281.423,267.628 281.857,267.555 281.936 C 267.482 282.015,266.882 282.440,266.223 282.879 C 265.563 283.318,264.903 283.771,264.757 283.885 C 263.336 284.993,261.515 286.229,261.117 286.356 C 260.847 286.441,260.626 286.614,260.626 286.738 C 260.626 286.863,260.087 287.171,259.427 287.423 C 258.767 287.674,258.228 287.975,258.228 288.091 C 258.228 288.207,257.598 288.615,256.829 288.997 C 256.059 289.379,254.530 290.222,253.431 290.871 C 251.310 292.121,245.527 295.003,245.139 295.003 C 245.012 295.003,244.038 295.375,242.974 295.830 C 239.518 297.308,238.922 297.536,238.702 297.465 C 238.583 297.426,238.221 297.538,237.897 297.713 C 237.328 298.020,232.660 299.718,231.844 299.914 C 231.507 299.996,229.709 300.496,228.781 300.767 C 228.518 300.844,226.889 301.281,225.849 301.554 C 225.556 301.631,225.077 301.741,224.783 301.798 C 224.490 301.855,224.071 301.950,223.851 302.008 C 222.664 302.325,222.053 302.472,221.452 302.582 C 221.086 302.649,220.486 302.776,220.120 302.864 C 219.753 302.952,219.094 303.078,218.654 303.143 C 218.215 303.208,217.555 303.328,217.189 303.409 C 216.297 303.607,215.125 303.798,213.991 303.930 C 213.478 303.989,212.758 304.094,212.392 304.162 C 211.597 304.309,208.425 304.649,206.929 304.747 C 199.387 305.243,194.258 305.319,189.740 305.003 C 188.348 304.906,186.609 304.791,185.876 304.747 C 185.143 304.704,184.127 304.577,183.619 304.466 C 183.110 304.354,182.031 304.227,181.220 304.184 C 180.410 304.141,179.687 304.083,179.614 304.054 C 179.540 304.025,179.373 304.021,179.241 304.046 C 179.109 304.070,178.809 304.009,178.574 303.908 C 178.340 303.808,177.788 303.699,177.348 303.665 C 176.909 303.631,176.549 303.577,176.549 303.545 C 176.549 303.513,176.129 303.441,175.616 303.386 C 174.594 303.275,173.389 303.068,173.284 302.984 C 173.248 302.955,173.098 302.901,172.951 302.865 C 172.805 302.828,172.655 302.771,172.618 302.738 C 172.582 302.706,172.252 302.643,171.885 302.600 C 171.355 302.538,169.148 302.037,167.222 301.542 C 167.075 301.505,166.446 301.382,165.823 301.269 C 165.200 301.157,164.690 300.960,164.690 300.832 C 164.690 300.704,164.600 300.622,164.490 300.649 C 164.189 300.723,161.185 300.040,160.709 299.789 C 160.480 299.669,159.334 299.250,158.161 298.858 C 156.989 298.467,155.789 298.053,155.496 297.939 C 153.180 297.037,151.166 296.336,150.893 296.336 C 150.713 296.336,150.566 296.216,150.566 296.069 C 150.566 295.923,150.346 295.803,150.078 295.803 C 149.809 295.803,149.499 295.713,149.389 295.603 C 149.279 295.493,149.109 295.397,149.012 295.390 C 148.914 295.382,148.271 295.112,147.583 294.790 C 146.895 294.468,146.205 294.204,146.051 294.204 C 145.896 294.204,145.769 294.084,145.769 293.937 C 145.769 293.791,145.602 293.671,145.397 293.671 C 145.192 293.671,144.300 293.311,143.413 292.871 C 142.527 292.432,141.675 292.072,141.521 292.072 C 141.366 292.072,141.239 291.952,141.239 291.805 C 141.239 291.659,141.087 291.539,140.901 291.539 C 140.715 291.539,140.116 291.235,139.569 290.863 C 139.022 290.491,138.574 290.260,138.574 290.348 C 138.574 290.437,138.226 290.261,137.800 289.958 C 137.375 289.655,136.895 289.407,136.734 289.407 C 136.574 289.407,136.442 289.316,136.442 289.206 C 136.442 289.095,136.092 288.849,135.664 288.660 C 135.236 288.470,134.157 287.844,133.266 287.268 C 132.375 286.692,131.644 286.308,131.641 286.415 C 131.639 286.522,131.549 286.483,131.442 286.330 C 131.089 285.826,129.591 284.889,129.417 285.062 C 129.324 285.156,129.247 285.032,129.247 284.788 C 129.247 284.544,129.085 284.344,128.886 284.344 C 128.688 284.344,128.202 284.044,127.807 283.678 C 127.411 283.311,126.992 283.011,126.876 283.011 C 126.759 283.011,126.416 282.801,126.113 282.545 C 124.665 281.320,124.429 281.146,124.222 281.146 C 124.009 281.146,123.619 280.840,121.985 279.393 C 121.582 279.036,121.252 278.816,121.252 278.905 C 121.252 278.994,120.851 278.666,120.359 278.175 C 119.868 277.684,119.140 277.042,118.740 276.749 C 117.472 275.818,116.229 274.692,113.254 271.782 C 111.660 270.223,110.289 269.014,110.208 269.095 C 110.126 269.176,110.060 269.036,110.060 268.783 C 110.060 268.530,109.950 268.391,109.816 268.474 C 109.682 268.556,109.532 268.515,109.483 268.381 C 109.396 268.142,106.647 265.014,105.197 263.503 C 104.793 263.083,104.464 262.688,104.464 262.625 C 104.464 262.562,104.134 262.170,103.731 261.755 C 103.328 261.339,102.698 260.609,102.332 260.132 C 101.965 259.655,101.486 259.042,101.266 258.771 C 101.046 258.500,100.686 258.015,100.466 257.695 C 100.247 257.374,99.857 256.865,99.600 256.563 C 99.344 256.261,99.134 255.931,99.134 255.829 C 99.134 255.667,98.814 255.237,97.805 254.041 C 97.655 253.863,97.394 253.413,97.225 253.041 C 97.055 252.669,96.824 252.365,96.711 252.365 C 96.598 252.365,96.429 252.126,96.336 251.834 C 96.244 251.541,96.026 251.152,95.852 250.968 C 95.549 250.647,94.793 249.517,93.442 247.368 C 92.092 245.220,91.648 244.415,90.475 241.983 C 89.805 240.596,89.157 239.397,89.034 239.318 C 88.753 239.138,87.402 236.454,86.613 234.510 C 85.715 232.298,83.954 228.134,83.345 226.782 C 83.048 226.123,82.710 225.223,82.593 224.783 C 82.477 224.344,82.198 223.485,81.973 222.875 C 81.749 222.266,81.507 221.486,81.437 221.143 C 81.366 220.800,81.074 219.860,80.786 219.054 C 80.499 218.248,80.174 217.229,80.064 216.789 C 79.954 216.349,79.816 215.809,79.759 215.590 C 79.701 215.370,79.623 215.010,79.586 214.790 C 79.549 214.570,79.356 213.851,79.158 213.191 C 78.959 212.532,78.767 211.812,78.730 211.592 C 78.692 211.372,78.582 210.893,78.483 210.526 C 78.385 210.160,78.268 209.482,78.224 209.020 C 78.180 208.558,78.076 208.068,77.992 207.933 C 77.859 207.718,77.374 205.136,77.144 203.419 C 77.102 203.100,76.983 202.457,76.880 201.990 C 76.777 201.522,76.651 200.703,76.600 200.170 C 76.549 199.637,76.430 198.541,76.336 197.735 C 76.003 194.879,75.958 194.374,75.781 191.606 C 75.445 186.346,75.637 175.087,76.105 172.552 C 76.186 172.112,76.295 171.153,76.347 170.420 C 76.399 169.687,76.462 169.087,76.487 169.087 C 76.512 169.087,76.565 168.668,76.604 168.155 C 76.644 167.642,76.707 167.162,76.744 167.089 C 76.781 167.015,76.800 166.871,76.784 166.767 C 76.769 166.664,76.940 165.525,77.163 164.236 C 77.817 160.461,77.993 159.552,78.094 159.427 C 78.124 159.390,78.173 159.151,78.204 158.894 C 78.235 158.638,78.355 158.213,78.470 157.950 C 78.586 157.687,78.606 157.398,78.516 157.308 C 78.426 157.218,78.460 157.013,78.591 156.853 C 78.723 156.693,78.898 156.129,78.981 155.599 C 79.065 155.070,79.253 154.320,79.400 153.934 C 79.547 153.547,79.613 153.231,79.547 153.231 C 79.481 153.231,79.560 152.901,79.724 152.498 C 79.887 152.095,80.005 151.496,79.986 151.166 C 79.968 150.836,80.058 150.566,80.187 150.566 C 80.315 150.566,80.504 150.117,80.607 149.567 C 80.710 149.017,80.892 148.448,81.011 148.301 C 81.131 148.155,81.300 147.581,81.387 147.027 C 81.474 146.473,81.719 145.604,81.932 145.095 C 82.144 144.587,82.240 144.171,82.145 144.171 C 82.050 144.171,82.116 144.027,82.292 143.851 C 82.468 143.675,82.612 143.344,82.612 143.116 C 82.612 142.887,82.895 142.162,83.242 141.504 C 83.588 140.845,84.019 139.827,84.200 139.241 C 84.688 137.655,85.115 136.709,85.342 136.709 C 85.452 136.709,85.523 136.619,85.499 136.509 C 85.412 136.111,85.873 134.843,86.105 134.843 C 86.236 134.843,86.323 134.753,86.300 134.644 C 86.236 134.339,86.560 133.532,87.423 131.846 C 87.855 131.004,88.208 130.134,88.208 129.914 C 88.208 129.694,88.298 129.513,88.408 129.511 C 88.518 129.510,88.844 128.970,89.134 128.312 C 89.423 127.654,89.753 127.115,89.867 127.115 C 89.980 127.115,90.073 126.937,90.073 126.720 C 90.073 126.502,90.433 125.739,90.873 125.024 C 91.312 124.310,91.672 123.644,91.672 123.544 C 91.672 123.444,91.908 123.109,92.196 122.800 C 92.484 122.491,92.668 122.154,92.605 122.052 C 92.542 121.950,92.696 121.638,92.947 121.359 C 93.199 121.081,93.644 120.395,93.937 119.835 C 94.231 119.276,94.680 118.591,94.937 118.314 C 95.193 118.037,95.403 117.685,95.403 117.533 C 95.403 117.380,95.530 117.255,95.685 117.255 C 95.841 117.255,95.905 117.153,95.828 117.029 C 95.751 116.905,95.924 116.550,96.212 116.241 C 96.500 115.932,96.736 115.554,96.736 115.401 C 96.736 115.248,96.847 115.123,96.984 115.123 C 97.121 115.123,97.300 114.913,97.383 114.657 C 97.466 114.400,97.894 113.807,98.334 113.339 C 98.774 112.871,99.134 112.361,99.134 112.206 C 99.134 112.052,99.274 111.925,99.445 111.925 C 99.616 111.925,99.686 111.855,99.600 111.770 C 99.461 111.630,99.786 111.135,100.609 110.230 C 100.761 110.063,101.239 109.447,101.672 108.861 C 102.105 108.274,102.640 107.615,102.862 107.395 C 103.083 107.175,103.864 106.276,104.597 105.396 C 105.330 104.517,106.199 103.522,106.529 103.186 C 106.859 102.849,107.129 102.460,107.129 102.320 C 107.129 102.180,107.328 102.065,107.573 102.065 C 107.817 102.065,107.945 101.994,107.857 101.906 C 107.770 101.818,108.950 100.499,110.480 98.974 C 113.093 96.371,113.895 95.310,112.019 96.940 M313.570 157.699 C 313.653 158.031,313.827 158.368,313.956 158.448 C 314.321 158.673,314.232 158.185,313.804 157.613 C 313.431 157.113,313.423 157.117,313.570 157.699 M56.260 168.333 C 56.243 168.504,56.152 168.864,56.057 169.132 C 55.923 169.511,55.958 169.552,56.215 169.315 C 56.397 169.148,56.488 168.788,56.418 168.516 C 56.348 168.244,56.277 168.161,56.260 168.333 M318.579 248.767 C 318.511 248.987,318.396 249.353,318.324 249.581 C 318.253 249.808,318.298 249.930,318.426 249.851 C 318.553 249.772,318.715 249.407,318.785 249.038 C 318.925 248.310,318.781 248.121,318.579 248.767 M60.244 261.559 C 60.246 262.030,61.006 263.195,61.017 262.742 C 61.022 262.514,60.850 262.094,60.635 261.810 C 60.420 261.525,60.244 261.412,60.244 261.559 M308.678 273.351 C 308.587 273.608,308.462 273.937,308.400 274.084 C 308.339 274.231,308.477 274.118,308.708 273.833 C 309.127 273.317,309.253 272.885,308.986 272.885 C 308.908 272.885,308.769 273.095,308.678 273.351 M67.022 275.816 C 67.249 276.256,67.482 276.616,67.539 276.616 C 67.595 276.616,67.506 276.256,67.340 275.816 C 67.174 275.376,66.942 275.017,66.823 275.017 C 66.705 275.017,66.795 275.376,67.022 275.816 " stroke="none" fill="#33b34c" fill-rule="evenodd"></path><path id="path3" d="M102.465 198.684 C 102.318 198.726,100.350 199.256,98.091 199.863 C 93.550 201.082,84.210 204.059,83.845 204.403 C 83.715 204.525,86.817 215.305,90.874 228.827 C 94.867 242.139,98.296 253.571,98.492 254.232 C 98.689 254.892,99.035 255.671,99.262 255.964 C 99.489 256.256,100.130 257.117,100.688 257.877 C 102.100 259.803,103.447 261.455,103.997 261.936 C 104.254 262.160,104.464 262.504,104.464 262.700 C 104.464 262.896,104.584 262.982,104.730 262.891 C 104.877 262.801,104.997 262.837,104.997 262.972 C 104.997 263.208,106.428 264.874,108.528 267.081 C 109.077 267.659,109.527 268.249,109.527 268.392 C 109.527 268.535,109.647 268.578,109.793 268.488 C 109.940 268.397,110.060 268.534,110.060 268.792 C 110.060 269.087,110.153 269.167,110.311 269.007 C 110.553 268.763,103.161 198.986,102.865 198.725 C 102.791 198.660,102.612 198.642,102.465 198.684 M289.674 199.590 C 289.674 199.955,281.982 267.464,281.793 268.754 L 281.637 269.820 283.812 267.555 C 285.009 266.309,286.141 265.076,286.329 264.816 C 286.516 264.555,287.140 263.836,287.715 263.217 C 288.290 262.598,289.116 261.612,289.550 261.026 C 289.984 260.440,290.460 259.830,290.606 259.671 C 290.753 259.512,291.113 259.049,291.406 258.642 C 291.699 258.235,292.063 257.766,292.214 257.599 C 292.365 257.432,292.747 256.928,293.063 256.478 C 293.729 255.530,309.200 205.429,308.914 205.145 C 307.932 204.172,289.674 198.901,289.674 199.590 M130.180 285.297 C 130.766 285.703,131.334 286.165,131.442 286.322 C 131.549 286.480,131.639 286.522,131.641 286.415 C 131.644 286.308,132.375 286.692,133.266 287.268 C 134.157 287.844,135.236 288.470,135.664 288.660 C 136.092 288.849,136.442 289.095,136.442 289.206 C 136.442 289.316,136.621 289.407,136.839 289.407 C 137.057 289.407,137.481 289.617,137.780 289.873 C 138.080 290.130,138.411 290.340,138.516 290.341 C 138.621 290.342,139.141 290.612,139.672 290.941 C 140.202 291.270,140.772 291.539,140.938 291.539 C 141.103 291.539,141.239 291.659,141.239 291.805 C 141.239 291.952,141.366 292.072,141.521 292.072 C 141.675 292.072,142.527 292.432,143.413 292.871 C 144.300 293.311,145.192 293.671,145.397 293.671 C 145.602 293.671,145.769 293.791,145.769 293.937 C 145.769 294.084,145.896 294.204,146.051 294.204 C 146.205 294.204,146.835 294.430,147.450 294.706 C 148.419 295.141,149.488 295.227,155.496 295.354 C 169.609 295.653,178.343 297.943,185.859 303.316 C 188.406 305.137,188.490 305.113,187.190 302.947 C 180.610 291.981,161.786 285.196,136.576 284.705 L 129.114 284.559 130.180 285.297 M250.267 285.173 C 228.262 286.266,211.710 292.698,205.149 302.705 C 203.542 305.156,203.645 305.274,205.918 303.589 C 213.123 298.249,222.404 295.825,236.306 295.651 C 241.780 295.582,243.844 295.464,244.700 295.170 C 246.274 294.631,251.029 292.290,253.431 290.872 C 254.530 290.223,256.059 289.379,256.829 288.997 C 257.598 288.615,258.228 288.200,258.228 288.076 C 258.228 287.951,258.635 287.715,259.133 287.551 C 259.631 287.386,260.282 287.047,260.579 286.797 C 260.876 286.547,261.518 286.107,262.006 285.819 L 262.891 285.295 261.159 285.117 C 258.921 284.887,255.692 284.904,250.267 285.173 " stroke="none" fill="#641414" fill-rule="evenodd"></path><path id="path4" d="M194.348 67.488 C 192.352 69.672,192.264 73.348,194.160 75.386 L 195.056 76.349 195.063 71.619 C 195.067 69.017,195.031 66.889,194.983 66.889 C 194.935 66.889,194.650 67.159,194.348 67.488 M179.156 92.307 C 176.293 95.331,174.236 99.360,173.255 103.864 L 173.008 104.997 177.102 104.997 L 181.196 104.997 181.271 97.602 C 181.312 93.534,181.332 90.173,181.316 90.132 C 181.299 90.091,180.327 91.070,179.156 92.307 M172.418 151.099 L 172.418 190.806 176.815 190.806 L 181.213 190.806 181.213 151.099 L 181.213 111.392 176.815 111.392 L 172.418 111.392 172.418 151.099 M219.054 151.366 C 219.054 184.570,219.113 191.073,219.415 191.073 C 220.063 191.073,220.120 187.718,220.120 149.327 C 220.120 111.837,220.117 111.659,219.587 111.659 C 219.056 111.659,219.054 111.837,219.054 151.366 M145.719 113.946 C 143.988 116.468,144.132 119.495,146.082 121.569 C 146.676 122.201,147.032 122.530,146.873 122.299 C 146.699 122.049,146.553 120.072,146.509 117.391 L 146.436 112.902 145.719 113.946 M231.893 131.123 C 227.851 133.822,225.650 137.609,224.772 143.371 C 224.428 145.633,224.166 163.358,224.477 163.358 C 224.528 163.358,226.450 162.878,228.748 162.292 C 231.046 161.706,233.163 161.226,233.452 161.226 C 233.969 161.226,233.977 160.975,233.977 145.636 C 233.977 136.757,233.876 130.047,233.741 130.047 C 233.611 130.047,232.780 130.531,231.893 131.123 M158.827 145.964 L 158.961 161.563 162.958 162.553 C 165.157 163.097,167.225 163.629,167.555 163.734 L 168.155 163.927 168.152 155.714 C 168.148 139.385,166.507 134.888,158.961 130.518 C 158.784 130.416,158.739 135.601,158.827 145.964 M128.885 144.743 C 128.604 147.440,128.680 158.561,128.981 158.561 C 129.152 158.561,129.247 155.807,129.247 150.833 C 129.247 142.920,129.185 141.875,128.885 144.743 M263.673 151.899 C 263.673 155.490,263.711 156.959,263.757 155.163 C 263.803 153.368,263.803 150.430,263.757 148.634 C 263.711 146.839,263.673 148.308,263.673 151.899 M121.673 164.224 C 121.594 164.847,121.496 187.991,121.457 215.656 L 121.386 265.956 124.051 265.957 C 153.906 265.971,181.791 276.118,191.290 290.424 L 192.938 292.906 192.931 291.756 C 192.927 291.124,192.638 287.129,192.289 282.878 L 191.655 275.150 190.287 271.552 C 186.404 261.341,181.661 253.949,175.096 247.876 C 170.516 243.639,170.653 245.054,172.941 225.742 C 173.973 217.035,174.817 209.869,174.817 209.819 C 174.817 209.768,174.097 209.727,173.218 209.727 L 171.619 209.727 171.619 205.863 L 171.619 201.999 170.153 201.999 L 168.688 201.999 168.688 185.253 L 168.688 168.508 165.690 167.671 C 154.741 164.614,141.684 163.098,126.265 163.093 L 121.818 163.091 121.673 164.224 M252.498 163.915 C 242.691 164.519,233.714 165.975,226.049 168.203 L 224.117 168.765 224.117 185.515 L 224.117 202.265 222.518 202.265 L 220.919 202.265 220.919 206.129 L 220.919 209.993 219.987 209.993 C 218.823 209.993,218.730 208.059,220.786 226.510 C 222.894 245.434,223.053 244.098,218.197 248.284 C 211.952 253.668,207.125 261.228,202.745 272.485 C 201.805 274.901,199.908 290.070,200.475 290.637 C 200.525 290.688,201.371 289.718,202.355 288.481 C 212.678 275.496,239.157 266.489,267.005 266.489 L 271.019 266.489 271.019 248.434 C 271.020 238.504,271.099 215.360,271.197 197.002 L 271.374 163.624 263.668 163.663 C 259.430 163.684,254.404 163.798,252.498 163.915 M115.789 178.169 C 115.496 178.214,112.948 178.515,110.127 178.838 C 107.305 179.160,104.997 179.497,104.997 179.585 C 104.997 179.674,107.272 200.818,110.051 226.572 C 114.714 269.773,115.293 274.484,115.935 274.484 C 116.017 274.484,116.517 274.873,117.046 275.350 C 117.574 275.826,118.335 276.456,118.737 276.749 C 119.138 277.042,119.868 277.684,120.359 278.175 C 120.851 278.666,121.252 278.994,121.252 278.905 C 121.252 278.816,121.582 279.036,121.985 279.393 C 124.134 281.297,124.275 281.379,124.565 280.909 C 125.388 279.578,147.698 280.648,157.368 282.482 C 173.813 285.602,188.527 294.143,191.406 302.241 C 191.792 303.328,191.830 301.987,191.460 300.357 C 187.456 282.753,159.412 270.172,124.087 270.132 L 117.461 270.125 117.561 224.070 L 117.660 178.015 116.991 178.051 C 116.623 178.071,116.083 178.124,115.789 178.169 M275.191 180.561 C 275.095 181.696,275.017 201.898,275.017 225.453 C 275.017 249.008,274.941 268.829,274.849 269.501 L 274.682 270.722 270.119 270.569 C 238.847 269.523,208.329 281.112,201.916 296.470 C 200.168 300.656,199.946 303.519,201.575 300.874 C 210.154 286.941,236.260 278.944,266.106 281.104 C 268.444 281.274,270.684 280.633,270.032 279.980 C 269.940 279.889,270.024 279.813,270.220 279.813 C 270.415 279.813,270.765 279.636,270.997 279.420 C 272.220 278.280,272.861 277.728,273.948 276.881 C 274.606 276.369,275.596 275.527,276.147 275.010 L 277.151 274.071 282.498 227.208 C 285.439 201.433,287.747 180.252,287.627 180.140 C 287.443 179.968,283.462 179.424,276.857 178.667 L 275.366 178.497 275.191 180.561 M175.616 193.563 C 175.616 194.347,175.538 196.086,175.443 197.427 L 175.270 199.867 179.307 199.867 L 183.344 199.867 183.344 196.003 L 183.344 192.139 179.480 192.139 L 175.616 192.139 175.616 193.563 M216.656 196.003 C 216.656 199.689,216.680 199.867,217.189 199.867 C 217.697 199.867,217.722 199.689,217.722 196.003 C 217.722 192.316,217.697 192.139,217.189 192.139 C 216.680 192.139,216.656 192.316,216.656 196.003 M178.956 202.065 C 178.825 202.825,174.284 241.169,174.284 241.512 C 174.284 241.586,175.459 242.676,176.894 243.936 C 179.108 245.878,181.805 248.737,183.792 251.246 C 184.262 251.840,184.275 251.072,184.208 226.529 L 184.139 201.199 181.622 201.199 L 179.105 201.199 178.956 202.065 M215.619 229.129 L 215.590 244.401 216.128 244.023 C 217.201 243.272,218.787 241.677,218.775 241.362 C 218.768 241.184,218.062 234.923,217.205 227.448 L 215.648 213.857 215.619 229.129 M310.585 221.586 C 310.516 221.805,310.401 222.171,310.330 222.399 C 310.258 222.626,310.304 222.748,310.431 222.669 C 310.558 222.591,310.720 222.225,310.791 221.856 C 310.930 221.128,310.786 220.939,310.585 221.586 M82.624 225.050 C 82.618 225.446,83.093 226.123,83.261 225.956 C 83.340 225.876,83.231 225.579,83.017 225.297 C 82.803 225.015,82.627 224.903,82.624 225.050 M308.625 226.960 C 308.608 227.131,308.517 227.491,308.422 227.760 C 308.288 228.138,308.323 228.180,308.580 227.943 C 308.762 227.775,308.853 227.416,308.783 227.144 C 308.713 226.871,308.642 226.789,308.625 226.960 M86.098 233.252 C 86.066 233.552,88.804 239.333,88.922 239.215 C 88.976 239.161,88.368 237.750,87.570 236.080 C 86.773 234.411,86.110 233.138,86.098 233.252 M303.699 238.574 L 303.220 239.440 303.769 238.774 C 304.256 238.183,304.473 237.708,304.255 237.708 C 304.213 237.708,303.963 238.098,303.699 238.574 M302.503 240.944 C 302.315 241.245,302.220 241.549,302.292 241.621 C 302.363 241.693,302.561 241.491,302.732 241.173 C 302.902 240.854,302.997 240.550,302.943 240.496 C 302.889 240.442,302.691 240.643,302.503 240.944 M91.153 243.304 C 91.146 243.780,91.590 244.542,91.769 244.362 C 91.838 244.293,91.729 243.937,91.527 243.571 C 91.313 243.185,91.156 243.073,91.153 243.304 M297.135 250.078 C 297.135 250.285,296.985 250.516,296.802 250.590 C 296.591 250.675,296.628 250.732,296.904 250.745 C 297.144 250.757,297.402 250.526,297.479 250.233 C 297.556 249.940,297.510 249.700,297.377 249.700 C 297.244 249.700,297.135 249.870,297.135 250.078 M241.706 296.203 C 241.339 296.412,241.159 296.583,241.306 296.583 C 241.452 296.583,241.872 296.412,242.239 296.203 C 242.605 295.993,242.785 295.822,242.638 295.822 C 242.492 295.822,242.072 295.993,241.706 296.203 M239.048 297.125 C 238.397 297.537,238.859 297.652,239.574 297.256 C 239.960 297.042,240.072 296.885,239.840 296.882 C 239.620 296.879,239.264 296.988,239.048 297.125 M160.830 299.807 C 160.897 299.915,161.249 300.060,161.614 300.130 C 161.978 300.199,162.221 300.168,162.154 300.060 C 162.088 299.952,161.735 299.807,161.371 299.737 C 161.007 299.668,160.764 299.699,160.830 299.807 " stroke="none" fill="#c42c24" fill-rule="evenodd"></path></g></svg>